<?xml version="1.0" encoding="UTF-8"?><svg id="Layer_2" xmlns="http://www.w3.org/2000/svg" viewBox="0 0 120 120"><defs><style>.cls-1{fill:#857da0;}.cls-2{fill:#592acb;}</style></defs><path class="cls-1" d="M120,19.44v-.42c-.03,.06-.05,.13-.05,.21s.02,.15,.05,.21Z"/><path class="cls-1" d="M120,71.43v-.31s-.03,.1-.03,.16,.01,.11,.03,.15Z"/><path class="cls-1" d="M0,67.4v.32s.03-.1,.03-.16-.01-.11-.03-.16Z"/><polygon class="cls-1" points="0 .42 .72 0 .62 0 0 .36 0 .42"/><path class="cls-1" d="M0,37.63v.39c.03-.06,.04-.12,.04-.19s-.02-.13-.04-.19Z"/><path class="cls-2" d="M120,4.66v-.59h0l-4.86-2.84-.51-.3c.05-.09,.07-.18,.07-.29s-.03-.2-.07-.29l.61-.36h-.1l-.47,.27-.07,.04c-.11-.16-.29-.27-.49-.28v-.03h-.05V.03c-.21,0-.39,.12-.49,.28l-.54-.31h-.1l.61,.36c-.05,.09-.07,.18-.07,.29s.03,.2,.07,.29l-5.46,3.19c-.07-.11-.19-.18-.33-.19V0h-.05V3.94c-.14,0-.26,.08-.33,.19l-5.01-2.93-.54-.31c.04-.07,.06-.15,.06-.24s-.02-.17-.06-.24l.7-.41h-.1l-.41,.24-.21,.12c-.09-.13-.24-.22-.41-.23v-.13h-.05V.13c-.17,0-.32,.1-.41,.23l-.62-.36h-.1l.7,.41c-.04,.07-.06,.15-.06,.24s.02,.17,.06,.24l-5.29,3.09c-.12-.2-.34-.33-.59-.34V0h-.05V3.64c-.25,0-.46,.14-.59,.34l-4.71-2.75-.5-.29c.04-.09,.07-.18,.07-.29s-.03-.2-.07-.29l.62-.36h-.1l-.45,.26-.09,.05c-.1-.16-.28-.27-.49-.28v-.04h-.05V.04c-.2,0-.38,.12-.49,.28l-.54-.32h-.1l.62,.36c-.05,.09-.07,.18-.07,.29s.03,.2,.07,.29l-5.48,3.2c-.07-.1-.18-.17-.32-.18V0h-.05V3.95c-.13,0-.25,.08-.32,.18l-4.99-2.91-.56-.33c.04-.07,.06-.16,.06-.25s-.02-.17-.06-.25l.68-.4h-.1l-.45,.26-.15,.09c-.09-.14-.25-.23-.43-.24v-.11h-.05V.11c-.18,0-.33,.1-.43,.24l-.6-.35h-.1l.68,.4c-.04,.07-.06,.16-.06,.25s.02,.17,.06,.25l-5.35,3.13c-.11-.17-.29-.28-.51-.29V0h-.05V3.73c-.21,0-.4,.12-.51,.29l-4.79-2.8-.64-.37c.03-.06,.05-.13,.05-.2s-.02-.14-.05-.2l.76-.44h-.1l-.45,.26-.23,.14c-.08-.11-.2-.19-.35-.2v-.2h-.05V.2c-.15,0-.27,.08-.35,.2l-.68-.4h-.1l.76,.44c-.03,.06-.05,.13-.05,.2s.02,.14,.05,.2l-2.99,1.75-2.63,1.54c-.07-.1-.18-.17-.32-.18V0h-.05V3.96c-.13,0-.25,.08-.32,.18l-5.42-3.17c.05-.1,.08-.21,.08-.32s-.03-.23-.08-.32l.55-.32h-.1l-.48,.28c-.08-.13-.21-.23-.35-.28h-.45c-.15,.05-.27,.15-.35,.28l-.48-.28h-.1l.55,.32c-.05,.1-.08,.21-.08,.32s.03,.23,.08,.32l-5.27,3.08c-.1-.15-.27-.25-.46-.26V0h-.05V3.79c-.19,0-.36,.11-.46,.26l-5.19-3.03c.06-.11,.1-.24,.1-.37s-.03-.26-.1-.37l.47-.27h-.1l-.39,.23c-.06-.09-.13-.17-.22-.23h-.88c-.09,.06-.17,.14-.22,.23l-.39-.23h-.1l.47,.27c-.06,.11-.1,.24-.1,.37s.03,.26,.1,.37l-5.32,3.11c-.07-.11-.19-.18-.33-.18V0h-.05V3.94c-.14,0-.25,.08-.33,.18L25.38,.83c.03-.06,.05-.12,.05-.19s-.02-.13-.05-.19l.79-.46h-.1l-.71,.41c-.07-.1-.19-.17-.32-.18v-.23h-.05V.23c-.13,0-.25,.08-.32,.18l-.71-.41h-.1l.79,.46c-.03,.06-.05,.12-.05,.19s.02,.13,.05,.19l-5.53,3.23c-.09-.14-.25-.24-.44-.25V0h-.05V3.81c-.18,0-.34,.11-.44,.25L12.69,.85c.03-.06,.05-.13,.05-.21s-.02-.15-.05-.21l.75-.44h-.1l-.67,.39c-.08-.12-.21-.19-.36-.2v-.19h-.05V.19c-.15,0-.28,.09-.36,.2l-.67-.39h-.1l.75,.44c-.03,.06-.05,.13-.05,.21s.02,.15,.05,.21l-5.51,3.22c-.09-.14-.24-.23-.42-.24V0h-.05V3.84c-.18,0-.33,.1-.42,.24L0,.87v.06l5.46,3.19c-.04,.07-.06,.16-.06,.24s.02,.17,.06,.24L.72,7.37l-.72,.42v.57l5.52,3.22c-.03,.06-.05,.13-.05,.21s.02,.15,.05,.21L0,15.23v.57l5.31,3.1c-.05,.1-.08,.21-.08,.33s.03,.23,.08,.33L.72,22.24l-.72,.42v.06H.02l5.32-3.12c.12,.19,.33,.32,.57,.32v6.28c-.15,0-.28,.09-.36,.2L0,23.17v.06l5.52,3.23c-.03,.06-.05,.13-.05,.21s.02,.15,.05,.21L.02,30.09l-.02-.02v.64l.02-.02,5.44,3.18c-.04,.07-.06,.16-.06,.25s.02,.17,.06,.25l-4.72,2.76-.73,.43v.06l5.48-3.2c.09,.14,.25,.23,.42,.24v6.41c-.16,0-.31,.09-.39,.22l-5.51-3.22v.06l5.49,3.2c-.04,.07-.06,.15-.06,.23s.02,.16,.06,.23l-5.49,3.21v.06l5.51-3.22c.08,.13,.23,.21,.39,.22v6.45c-.16,0-.31,.09-.39,.22l-5.51-3.22v.06l5.49,3.21c-.04,.07-.06,.15-.06,.23s.02,.16,.06,.23l-4.77,2.79-.7,.41v.58l5.37,3.14c-.05,.09-.07,.18-.07,.29s.03,.2,.07,.29l-4.43,2.59-.89,.52s-.04-.06-.07-.09v.82s.05-.06,.07-.09l3.77,2.2,1.58,.92c-.04,.08-.07,.17-.07,.26s.02,.19,.07,.26l-3.68,2.15-1.74,1.02v.06l3.75-2.19,1.7-1c.1,.15,.26,.25,.45,.26v6.3c-.19,0-.36,.11-.46,.26l-3.8-2.22-1.65-.96v.06l3.84,2.24,1.58,.92c-.04,.08-.07,.17-.07,.27s.02,.19,.07,.27l-3.68,2.15-1.6,.94c-.04-.06-.09-.11-.14-.16v1.05c.05-.05,.1-.1,.14-.16l3.7,2.16,1.46,.85c-.05,.1-.09,.21-.09,.34s.03,.24,.09,.34l-3.55,2.08-1.69,.99s-.03-.04-.05-.07v.76s.04-.04,.05-.07l3.79,2.21,1.51,.88c-.05,.09-.08,.2-.08,.31s.03,.22,.08,.31l-3.6,2.11-1.6,.94c-.04-.06-.09-.11-.14-.16v1.05c.06-.04,.1-.1,.14-.16l3.7,2.16,1.68,.98c-.03,.06-.05,.13-.05,.21s.02,.14,.05,.21l-3.78,2.21-1.74,1.02v.57l3.84,2.25,1.65,.96c-.04,.07-.06,.15-.06,.23s.02,.16,.06,.23l-3.75,2.19-1.69,.99s-.04-.05-.06-.07v.78s.04-.05,.06-.07l3.78,2.21,1.62,.95c-.04,.07-.06,.16-.06,.25s.02,.17,.06,.24l-3.71,2.17L0,111.88h0v.58H0l3.84,2.23,1.33,.78c-.07,.12-.1,.26-.1,.41s.04,.29,.1,.41l-3.43,2-1.74,1.02v.06l3.75-2.19,1.45-.85c.15,.24,.41,.39,.7,.4v3.26h.05v-3.26c.3,0,.55-.17,.7-.4l3.55,2.07,1.61,.94c-.04,.07-.06,.16-.06,.25s.02,.17,.06,.25l-.26,.15h.1l.19-.11s.06,.08,.1,.11h.7s.07-.07,.1-.11l.19,.11h.1l-.26-.15c.04-.07,.06-.16,.06-.25s-.02-.17-.06-.25l3.71-2.17,1.68-.98c.1,.16,.27,.26,.47,.27v3.53h.05v-3.53c.2,0,.37-.11,.47-.27l3.78,2.21,1.6,.94c-.04,.08-.06,.16-.06,.25s.02,.18,.06,.25l-.25,.15h.1l.18-.11s.06,.07,.09,.11h.73s.07-.07,.09-.11l.18,.11h.1l-.25-.15c.04-.08,.06-.16,.06-.25s-.02-.18-.06-.25l3.7-2.16,1.71-1c.1,.15,.26,.24,.44,.25v3.57h.05v-3.57c.19,0,.35-.11,.44-.25l3.81,2.23,1.49,.87c-.05,.1-.08,.2-.08,.32s.03,.22,.08,.32l-.14,.08h.1l.07-.04s.02,.03,.03,.04h1.09l.03-.04,.07,.04h.1l-.14-.08c.05-.1,.08-.2,.08-.32s-.03-.22-.08-.32l3.59-2.1,1.76-1.03c.09,.13,.23,.22,.39,.22v3.62h.05v-3.62c.17,0,.31-.09,.39-.22l3.86,2.25,1.59,.93c-.04,.08-.06,.17-.06,.26s.02,.18,.06,.26l-.24,.14h.1l.17-.1s.05,.07,.08,.1h.77s.06-.06,.08-.1l.17,.1h.1l-.24-.14c.04-.08,.06-.17,.06-.26s-.02-.18-.06-.26l3.69-2.16,1.79-1.04c.08,.12,.21,.2,.37,.21v3.65h.05v-3.65c.15,0,.29-.09,.37-.21l5.5,3.21c-.04,.07-.06,.16-.06,.25s.02,.17,.06,.25l-.26,.15h.1l.19-.11s.06,.08,.1,.11h.7s.07-.07,.1-.11l.19,.11h.1l-.26-.15c.04-.07,.06-.16,.06-.25s-.02-.17-.06-.25l1.49-.87,4.03-2.35c.08,.12,.21,.19,.35,.2v3.67h.05v-3.67c.15,0,.28-.09,.35-.2l5.53,3.23c-.04,.07-.06,.15-.06,.23s.02,.16,.06,.23l-.29,.17h.1l.21-.12s.07,.09,.11,.12h.62s.08-.08,.11-.12l.21,.12h.1l-.29-.17c.04-.07,.06-.15,.06-.23s-.02-.16-.06-.23l1.51-.88,3.92-2.29c.1,.15,.27,.26,.47,.27v3.54h.05v-3.54c.2,0,.37-.11,.47-.27l5.49,3.21c-.03,.06-.05,.12-.05,.19s.02,.13,.05,.19l-.36,.21h.1l.28-.17c.05,.08,.13,.14,.22,.17h.27c.09-.03,.17-.09,.22-.17l.28,.17h.1l-.36-.21c.03-.06,.05-.12,.05-.19s-.02-.13-.05-.19l1.58-.92,3.96-2.31c.09,.14,.24,.23,.42,.24v3.59h.05v-3.59c.18,0,.33-.1,.42-.24l5.5,3.21c-.03,.06-.05,.14-.05,.21s.02,.15,.05,.22l-.32,.19h.1l.24-.14c.04,.06,.09,.11,.15,.14h.49c.06-.04,.11-.08,.15-.14l.24,.14h.1l-.32-.19c.03-.07,.05-.14,.05-.22s-.02-.15-.05-.21l1.59-.93,3.69-2.16c.13,.21,.37,.35,.63,.36v3.35h.05v-3.35c.27,0,.5-.15,.63-.36l5.39,3.15s-.04,.1-.04,.16,.01,.11,.04,.16l-.42,.24h.1l.34-.2c.06,.09,.16,.14,.27,.15v.05h.05v-.05c.11,0,.21-.07,.27-.15l.34,.2h.1l-.42-.24s.04-.1,.04-.16-.01-.11-.04-.16l1.61-.94,3.9-2.28s.05,.07,.09,.11v-.89s-.06,.07-.09,.11l-5.34-3.12c.04-.08,.06-.17,.06-.26s-.02-.18-.06-.26l1.44-.84,3.85-2.25c.04,.06,.09,.12,.15,.16v-1.07c-.06,.05-.11,.1-.15,.16l-5.16-3.01c.05-.1,.08-.21,.08-.33s-.03-.23-.08-.33l1.31-.77,3.94-2.3s.04,.05,.06,.07v-.78s-.04,.05-.06,.07l-5.35-3.12c.04-.08,.07-.17,.07-.27s-.02-.19-.07-.27l1.46-.85,3.92-2.29s.02,.02,.03,.03v-.67s-.02,.02-.02,.03l-5.37-3.14c.04-.08,.07-.18,.07-.28s-.03-.2-.07-.28l1.45-.85,3.94-2.3v-.06l-1.53,.9-3.88,2.27c-.1-.16-.28-.26-.48-.27v-6.37c.15,0,.29-.09,.37-.21l5.53,3.23v-.06l-5.5-3.21c.03-.06,.05-.14,.05-.21s-.02-.15-.05-.21l1.46-.85,4.04-2.36h0v-.59h0l-5.39-3.14c.04-.08,.07-.18,.07-.28s-.03-.2-.07-.28l1.45-.85,3.94-2.3v-.06l-1.53,.9-3.88,2.27c-.1-.16-.28-.26-.48-.27v-6.33c.17,0,.32-.1,.41-.23l5.49,3.21v-.06l-5.46-3.19c.04-.07,.06-.15,.06-.24s-.02-.17-.06-.24l1.47-.86,3.99-2.33v-.58l-5.46-3.19c.04-.07,.06-.15,.06-.24s-.02-.17-.06-.24l5.39-3.15s.04,.06,.07,.08v-.82s-.05,.05-.07,.08l-5.33-3.12c.04-.08,.07-.18,.07-.28s-.03-.19-.07-.28l5.34-3.12s.04,.05,.05,.07v-.78s-.04,.05-.05,.07l-4.79-2.8-.63-.37c.04-.07,.06-.15,.06-.23s-.02-.16-.06-.23l.93-.54,4.53-2.65,.02,.03v-.65l-.02,.03-5.43-3.17c.04-.07,.06-.16,.06-.25s-.02-.17-.06-.25l5.41-3.16s.02,.03,.04,.05v-.71s-.02,.03-.04,.05l-4.85-2.83-.42-.24c.05-.1,.08-.21,.08-.33s-.03-.23-.08-.33l.75-.44,4.53-2.65,.02,.02v-.64l-.02,.02-5.43-3.17c.04-.07,.06-.16,.06-.25s-.02-.17-.06-.25l5.45-3.18v-.06l-5.47,3.2c-.09-.14-.25-.23-.42-.24v-6.24c.22,0,.42-.13,.53-.3l5.36,3.13v-.06l-4.83-2.82-.51-.3c.05-.09,.08-.2,.08-.31s-.03-.22-.08-.31l.76-.45,4.57-2.67v-.58l-5.47-3.2c.04-.07,.06-.15,.06-.23s-.02-.16-.06-.23l5.47-3.2h0ZM5.9,115.03c-.3,0-.55,.17-.7,.4l-3.55-2.07-1.62-.95c.04-.07,.06-.15,.06-.24s-.02-.17-.06-.24l3.72-2.17,1.73-1.01c.09,.14,.24,.23,.42,.24v6.05Zm0-7.11c-.18,0-.33,.1-.42,.24l-3.83-2.24-1.57-.92c.04-.08,.07-.17,.07-.27s-.02-.19-.07-.27l3.66-2.14,1.76-1.03c.08,.13,.23,.21,.39,.22v6.42Zm0-7.4c-.16,0-.3,.09-.39,.22l-3.86-2.26L.01,97.53c.04-.07,.06-.15,.06-.23s-.02-.16-.06-.23l3.74-2.18,1.8-1.05c.08,.12,.21,.19,.35,.2v6.49Zm0-7.39c-.15,0-.28,.08-.35,.2l-3.9-2.28-1.48-.87c.05-.1,.08-.21,.08-.32s-.03-.23-.08-.32l3.58-2.09,1.62-.95c.11,.18,.31,.29,.53,.3v6.33Zm0-7.64c-.22,0-.42,.13-.53,.3l-3.72-2.17-1.57-.92c.04-.08,.07-.17,.07-.27s-.02-.19-.07-.27l3.67-2.15,1.58-.92c.12,.19,.33,.32,.58,.33v6.07Zm0-7.49c-.24,0-.45,.14-.58,.33l-3.68-2.15-1.48-.87c.05-.1,.08-.21,.08-.32s-.03-.23-.08-.32l3.58-2.09,1.7-.99c.1,.15,.26,.25,.46,.26v6.15Zm0-14.72c-.19,0-.35,.11-.45,.26l-3.8-2.22-1.55-.91c.04-.08,.07-.18,.07-.28s-.03-.2-.07-.28l5.32-3.11c.1,.16,.28,.27,.49,.28v6.26Zm0-7.48c-.21,0-.38,.12-.49,.28L.04,52.93c.04-.07,.06-.16,.06-.25s-.02-.17-.06-.25h.02l5.46-3.2c.08,.13,.23,.21,.39,.22v6.33Zm0-22.23c-.18,0-.33,.1-.42,.24L.04,30.63c.04-.08,.06-.16,.06-.25s-.02-.17-.06-.25l5.5-3.21c.08,.12,.21,.2,.36,.2v6.45Zm0-15.04c-.24,0-.45,.14-.57,.32L0,15.74c.04-.07,.06-.15,.06-.23s-.02-.16-.06-.23l5.54-3.23c.08,.12,.21,.2,.36,.2v6.28Zm0-7.19c-.15,0-.28,.09-.36,.2L.02,8.32c.04-.07,.06-.15,.06-.24s-.02-.17-.06-.24l5.46-3.19c.09,.14,.24,.23,.42,.24v6.45Zm.05-6.45c.18,0,.33-.1,.42-.24l2.73,1.59,2.66,1.55c-.05,.09-.07,.18-.07,.28s.03,.2,.07,.29l-5.44,3.18c-.08-.12-.21-.2-.36-.2V4.89Zm0,7.37c.15,0,.28-.09,.36-.2l2.78,1.63,2.73,1.6c-.04,.07-.06,.15-.06,.24s.02,.17,.06,.24l-5.31,3.1c-.12-.19-.33-.32-.57-.32v-6.28Zm0,7.68c.24,0,.45-.14,.57-.32l2.58,1.5,2.75,1.61c-.04,.07-.06,.15-.06,.23s.02,.16,.06,.23l-5.54,3.23c-.08-.12-.21-.2-.36-.2v-6.28Zm0,7.19c.15,0,.28-.09,.36-.2l2.79,1.63,2.73,1.59c-.04,.07-.06,.15-.06,.24s.02,.17,.06,.24l-5.45,3.18c-.09-.14-.25-.23-.42-.24v-6.45Zm0,7.51c.18,0,.33-.1,.42-.24l2.72,1.59,2.73,1.6c-.04,.07-.06,.15-.06,.24s.02,.17,.06,.24l-5.48,3.2c-.08-.13-.23-.21-.39-.22v-6.41Zm0,7.4c.16,0,.31-.09,.39-.22l2.75,1.61,2.5,1.46c-.06,.11-.1,.24-.1,.38s.04,.27,.1,.38l-5.25,3.07c-.08-.13-.23-.21-.39-.22v-6.44Zm0,7.43c.16,0,.31-.09,.39-.22l2.75,1.61,2.62,1.53c-.05,.09-.08,.19-.08,.3s.03,.21,.08,.3l-5.28,3.08c-.1-.16-.28-.27-.49-.28v-6.33Zm0,7.55c.21,0,.38-.12,.49-.28l5.41,3.16c-.04,.07-.06,.14-.06,.22s.02,.16,.06,.22l-5.45,3.19c-.1-.15-.26-.25-.45-.26v-6.26Zm0,7.39c.19,0,.35-.11,.45-.26l3.8,2.22,1.7,.99c-.03,.06-.05,.13-.05,.2s.02,.14,.05,.2l-3.79,2.22-1.7,.99c-.1-.15-.26-.25-.46-.26v-6.3Zm0,7.44c.19,0,.36-.11,.46-.26l3.8,2.22,1.59,.93c-.04,.08-.06,.17-.06,.26s.02,.18,.06,.26l-3.69,2.15-1.58,.92c-.12-.19-.33-.32-.58-.33v-6.15Zm0,7.58c.24,0,.45-.14,.58-.33l3.68,2.15,1.53,.89c-.05,.09-.07,.19-.07,.29s.03,.21,.07,.29l-3.63,2.12-1.62,.95c-.11-.18-.31-.29-.53-.3v-6.07Zm0,7.38c.22,0,.42-.13,.53-.3l3.72,2.17,1.67,.98c-.03,.06-.05,.13-.05,.21s.02,.15,.05,.21l-3.77,2.2-1.8,1.05c-.08-.12-.21-.19-.35-.2v-6.33Zm0,7.23c.15,0,.28-.09,.35-.2l3.9,2.28,1.64,.95c-.04,.07-.06,.15-.06,.23s.02,.16,.06,.23l-3.73,2.18-1.77,1.03c-.08-.13-.23-.21-.39-.22v-6.49Zm0,7.47c.16,0,.3-.09,.39-.22l3.86,2.26,1.64,.96c-.04,.07-.06,.15-.06,.23s.02,.16,.06,.23l-3.74,2.19-1.73,1.01c-.09-.14-.24-.23-.42-.24v-6.42Zm.7,13.92c-.15-.24-.41-.39-.7-.4v-6.05c.18,0,.33-.1,.42-.24l3.83,2.24,1.41,.83c-.06,.11-.09,.23-.09,.36s.03,.26,.09,.36l-3.51,2.05-1.45,.85Zm5.61,3.64c-.18,0-.33,.1-.42,.24l-3.83-2.24-1.33-.78c.07-.12,.11-.26,.11-.41s-.04-.29-.11-.41l3.43-2,1.53-.9c.13,.21,.36,.35,.62,.36v6.14Zm0-7.66c-.26,0-.49,.15-.62,.35l-3.63-2.12-1.62-.95c.04-.07,.06-.16,.06-.24s-.02-.17-.06-.25l3.72-2.17,1.76-1.03c.08,.13,.23,.22,.39,.22v6.18Zm0-7.17c-.16,0-.31,.09-.39,.22l-3.86-2.25-1.65-.96c.04-.07,.06-.14,.06-.23s-.02-.16-.06-.23l3.74-2.19,1.75-1.02c.09,.13,.23,.22,.4,.23v6.43Zm0-7.44c-.17,0-.31,.1-.4,.23l-3.85-2.25-1.68-.98c.03-.06,.05-.13,.05-.21s-.02-.14-.05-.21l3.78-2.21,1.79-1.05c.08,.12,.21,.2,.36,.21v6.46Zm0-7.39c-.15,0-.29,.09-.36,.21l-3.89-2.27-1.51-.88c.05-.09,.08-.2,.08-.31s-.03-.22-.08-.31l3.6-2.11,1.65-.96c.11,.17,.29,.28,.5,.29v6.35Zm0-7.6c-.21,0-.39,.12-.5,.29l-3.75-2.19-1.46-.85c.05-.1,.09-.22,.09-.34s-.03-.24-.09-.34l3.55-2.08,1.71-1c.1,.15,.26,.25,.44,.25v6.25Zm0-7.37c-.19,0-.35,.11-.44,.25l-3.81-2.22-1.58-.92c.04-.08,.07-.17,.07-.27s-.02-.19-.07-.27l3.68-2.15,1.81-1.06c.07,.11,.2,.19,.34,.19v6.44Zm0-7.32c-.14,0-.27,.08-.34,.19l-3.91-2.29-1.58-.92c.04-.08,.07-.17,.07-.26s-.02-.18-.07-.26l1.37-.8,4.08-2.38c.08,.13,.22,.21,.38,.22v6.51Zm0-7.49c-.16,0-.3,.09-.38,.22l-5.41-3.16c.05-.09,.07-.18,.07-.29s-.03-.2-.07-.29l5.28-3.08c.11,.17,.3,.29,.52,.3v6.3Zm0-7.59c-.22,0-.41,.12-.52,.3l-2.62-1.53-2.75-1.61c.04-.07,.06-.15,.06-.23s-.02-.16-.06-.23l5.25-3.07c.14,.22,.37,.36,.65,.37v6Zm0-7.58c-.27,0-.51,.15-.65,.37l-2.5-1.46-2.75-1.61c.04-.07,.06-.15,.06-.23s-.02-.16-.06-.23l5.48-3.2c.09,.14,.24,.23,.41,.24v6.12Zm0-7.16c-.17,0-.32,.1-.41,.23l-2.73-1.6-2.72-1.59c.04-.07,.06-.16,.06-.25s-.02-.17-.06-.25l5.45-3.18c.09,.14,.24,.23,.42,.24v6.39Zm0-7.44c-.17,0-.33,.1-.42,.24l-2.73-1.59-2.79-1.63c.03-.06,.05-.13,.05-.21s-.02-.15-.05-.21l5.54-3.23c.09,.13,.23,.22,.39,.22v6.41Zm0-7.41c-.16,0-.31,.09-.39,.22l-2.75-1.61-2.57-1.5c.05-.1,.08-.21,.08-.33s-.03-.23-.08-.33l5.3-3.1c.09,.14,.24,.23,.41,.24v6.42Zm0-7.46c-.17,0-.32,.1-.41,.23l-2.73-1.6-2.78-1.63c.03-.06,.05-.13,.05-.21s-.02-.15-.05-.21l5.44-3.18c.1,.16,.28,.27,.49,.28v6.31Zm0-7.52c-.2,0-.38,.12-.49,.28l-2.66-1.55-2.73-1.59c.04-.07,.06-.16,.06-.24s-.02-.17-.06-.24L11.91,.9c.08,.12,.21,.19,.36,.2V7.47Zm.05-6.37c.15,0,.28-.09,.36-.2l5.49,3.21c-.04,.08-.06,.16-.06,.26s.02,.18,.06,.26l-4.71,2.75-.66,.38c-.1-.16-.28-.27-.49-.28V1.1Zm0,7.59c.2,0,.38-.12,.49-.28l5.44,3.18c-.03,.06-.05,.13-.05,.21s.02,.15,.05,.21l-5.52,3.22c-.09-.14-.24-.23-.41-.23v-6.31Zm0,7.35c.17,0,.32-.1,.41-.24l5.38,3.15c-.05,.09-.07,.18-.07,.29s.03,.2,.07,.29l-4.65,2.72-.75,.44c-.09-.13-.23-.22-.39-.22v-6.42Zm0,7.41c.16,0,.31-.09,.39-.22l5.42,3.17c-.04,.08-.07,.18-.07,.28s.02,.19,.07,.28l-5.4,3.15c-.09-.14-.24-.23-.42-.24v-6.41Zm0,7.46c.17,0,.33-.1,.42-.24l5.46,3.19c-.04,.07-.06,.15-.06,.24s.02,.17,.06,.24l-4.72,2.76-.74,.43c-.09-.14-.24-.23-.41-.23v-6.39Zm0,7.43c.17,0,.32-.1,.41-.24l5.49,3.21c-.04,.07-.06,.14-.06,.22s.02,.16,.06,.22l-5.26,3.07c-.14-.22-.37-.36-.65-.37v-6.12Zm0,7.71c.27,0,.51-.15,.65-.37l5.27,3.08c-.03,.06-.05,.14-.05,.22s.02,.15,.05,.22l-4.78,2.8-.61,.36c-.11-.17-.3-.29-.52-.3v-6Zm0,7.29c.22,0,.41-.12,.52-.3l5.33,3.11c-.04,.08-.06,.16-.06,.26s.02,.18,.06,.26l-4.49,2.62-.98,.57c-.08-.13-.22-.21-.39-.22v-6.3Zm0,7.28c.16,0,.3-.09,.39-.22l3.87,2.26,1.54,.9c-.05,.09-.07,.18-.07,.29s.03,.2,.07,.29l-3.64,2.13-1.81,1.06c-.07-.11-.2-.19-.34-.19v-6.51Zm0,7.38c.14,0,.27-.08,.34-.19l3.91,2.28,1.65,.96c-.04,.07-.06,.14-.06,.23s.02,.16,.06,.23l-3.75,2.19-1.71,1c-.1-.15-.26-.25-.44-.25v-6.44Zm0,7.55c.19,0,.35-.11,.44-.25l3.81,2.23,1.55,.91c-.04,.08-.07,.18-.07,.28s.03,.2,.07,.28l-3.65,2.13-1.65,.97c-.11-.17-.29-.28-.5-.29v-6.25Zm0,7.5c.21,0,.39-.12,.5-.29l3.75,2.19,1.69,.99c-.03,.06-.05,.13-.05,.2s.02,.14,.05,.2l-3.79,2.21-1.79,1.05c-.08-.12-.21-.2-.36-.21v-6.35Zm0,7.27c.15,0,.29-.09,.36-.21l3.89,2.27,1.52,.89c-.05,.09-.08,.19-.08,.3s.03,.21,.08,.3l-3.62,2.11-1.75,1.02c-.09-.13-.23-.22-.4-.23v-6.46Zm0,7.48c.17,0,.32-.1,.4-.23l3.85,2.25,1.7,.99c-.03,.06-.05,.12-.05,.2s.02,.14,.05,.2l-3.8,2.22-1.76,1.03c-.08-.13-.23-.21-.39-.22v-6.43Zm0,7.42c.16,0,.31-.09,.39-.22l3.86,2.25,1.56,.91c-.04,.08-.07,.18-.07,.28s.03,.19,.07,.28l-3.66,2.14-1.53,.9c-.13-.21-.36-.35-.62-.35v-6.18Zm5.81,10.93l-3.66,2.14-1.73,1.01c-.09-.14-.25-.23-.42-.24v-6.14c.26,0,.49-.15,.62-.36l3.63,2.12,1.56,.91c-.04,.08-.07,.18-.07,.28s.02,.19,.07,.28Zm.5-.86c-.2,0-.37,.11-.47,.27l-3.78-2.21-1.41-.83c.06-.11,.09-.23,.09-.36s-.03-.25-.09-.36l3.51-2.05,1.68-.98c.1,.16,.27,.26,.47,.27v6.25Zm0-7.44c-.2,0-.37,.11-.47,.27l-3.78-2.21-1.64-.96c.04-.07,.06-.15,.06-.23s-.02-.16-.06-.23l3.74-2.19,1.82-1.06c.07,.11,.2,.18,.34,.19v6.41Zm0-7.27c-.14,0-.26,.08-.34,.19l-3.92-2.29-1.63-.96c.04-.07,.06-.15,.06-.23s-.02-.16-.06-.23l3.73-2.18,1.64-.96c.11,.17,.3,.29,.52,.29v6.36Zm0-7.64c-.22,0-.41,.12-.52,.29l-3.74-2.18-1.67-.98c.03-.06,.05-.14,.05-.21s-.02-.15-.05-.21l3.77-2.2,1.81-1.06c.07,.11,.2,.19,.34,.2v6.36Zm0-7.24c-.14,0-.27,.08-.34,.2l-3.91-2.28-1.53-.9c.05-.09,.07-.19,.07-.29s-.03-.21-.07-.29l3.63-2.12,1.67-.98c.1,.16,.28,.27,.48,.27v6.4Zm0-7.59c-.2,0-.38,.12-.48,.27l-3.77-2.21-1.59-.93c.04-.08,.06-.17,.06-.26s-.02-.18-.06-.26l3.69-2.16,1.77-1.03c.08,.13,.23,.21,.39,.22v6.35Zm0-7.33c-.16,0-.3,.09-.39,.22l-3.86-2.26-1.7-.99c.03-.06,.05-.13,.05-.2s-.02-.14-.05-.2l3.79-2.22,1.66-.97c.11,.16,.29,.27,.49,.28v6.33Zm0-7.56c-.21,0-.39,.12-.49,.28l-3.76-2.2-1.65-.96c.04-.07,.06-.14,.06-.22s-.02-.16-.06-.22l5.46-3.19c.09,.14,.25,.24,.44,.25v6.27Zm0-7.37c-.18,0-.34,.11-.44,.25l-5.33-3.11c.05-.09,.08-.19,.08-.3s-.03-.21-.08-.3l5.4-3.15c.08,.12,.22,.2,.37,.21v6.42Zm0-7.35c-.15,0-.29,.09-.37,.21l-5.27-3.08c.06-.11,.1-.24,.1-.38s-.04-.27-.1-.38l5.25-3.07c.08,.13,.22,.21,.38,.22v6.48Zm0-7.45c-.16,0-.3,.09-.38,.22l-5.49-3.21c.04-.07,.06-.15,.06-.24s-.02-.17-.06-.24l5.46-3.19c.09,.14,.24,.23,.41,.23v6.43Zm0-7.47c-.17,0-.32,.1-.41,.24l-5.46-3.19c.04-.07,.06-.15,.06-.24s-.02-.17-.06-.24l5.4-3.15c.1,.16,.27,.26,.47,.27v6.32Zm0-7.5c-.2,0-.37,.11-.47,.27l-5.42-3.17c.04-.07,.06-.15,.06-.23s-.02-.16-.06-.23l5.4-3.16c.1,.16,.28,.27,.49,.28v6.23Zm0-7.45c-.21,0-.39,.12-.49,.28l-5.38-3.15c.04-.07,.06-.15,.06-.24s-.02-.17-.06-.24l5.52-3.22c.08,.12,.21,.2,.36,.2v6.37Zm0-7.28c-.15,0-.28,.09-.36,.2l-5.44-3.18c.05-.08,.07-.18,.07-.29s-.03-.2-.07-.28l5.36-3.13c.09,.15,.25,.24,.44,.25v6.43Zm.05-6.43c.18,0,.34-.11,.44-.25l2.71,1.58,2.71,1.58c-.04,.08-.06,.16-.06,.25s.02,.18,.06,.25l-5.49,3.21c-.08-.12-.21-.2-.36-.2V4.91Zm0,7.34c.15,0,.28-.09,.36-.2l2.79,1.63,2.74,1.6c-.04,.07-.06,.15-.06,.24s.02,.17,.06,.24l-5.39,3.15c-.1-.16-.28-.27-.49-.28v-6.37Zm0,7.59c.21,0,.39-.12,.49-.28l2.65,1.55,2.69,1.57c-.04,.08-.07,.17-.07,.27s.02,.19,.07,.27l-5.36,3.13c-.1-.16-.27-.26-.47-.27v-6.23Zm0,7.41c.2,0,.37-.11,.47-.27l2.67,1.56,2.71,1.58c-.04,.08-.06,.16-.06,.25s.02,.18,.06,.25l-5.44,3.18c-.09-.14-.24-.23-.41-.24v-6.32Zm0,7.36c.17,0,.32-.1,.41-.23l2.73,1.6,2.74,1.6c-.04,.07-.06,.15-.06,.24s.02,.17,.06,.24l-5.5,3.21c-.08-.13-.22-.21-.38-.22v-6.43Zm0,7.4c.16,0,.3-.09,.38-.22l2.76,1.61,2.79,1.63c-.03,.06-.05,.13-.05,.21s.02,.14,.05,.2l-5.57,3.25c-.08-.12-.22-.2-.37-.21v-6.48Zm0,7.42c.15,0,.29-.09,.37-.21l2.77,1.62,2.54,1.48c-.06,.1-.09,.22-.09,.35s.03,.25,.09,.35l-5.25,3.07c-.09-.14-.25-.24-.44-.25v-6.42Zm0,7.51c.18,0,.34-.11,.44-.25l5.49,3.21c-.03,.06-.05,.13-.05,.21s.02,.15,.05,.21l-5.44,3.18c-.11-.16-.29-.27-.49-.28v-6.27Zm0,7.5c.21,0,.39-.12,.49-.28l3.76,2.2,1.54,.9c-.05,.09-.07,.18-.07,.29s.03,.2,.07,.29l-3.64,2.13-1.77,1.03c-.08-.13-.23-.21-.39-.22v-6.33Zm0,7.31c.16,0,.3-.09,.39-.22l3.86,2.26,1.63,.95c-.04,.07-.06,.15-.06,.24s.02,.17,.06,.24l-3.73,2.18-1.68,.98c-.1-.16-.28-.27-.48-.27v-6.35Zm0,7.54c.2,0,.38-.12,.48-.27l3.77,2.2,1.53,.89c-.05,.09-.07,.19-.07,.29s.03,.21,.07,.29l-3.63,2.12-1.81,1.06c-.07-.11-.2-.19-.34-.2v-6.4Zm0,7.28c.14,0,.27-.08,.34-.2l3.91,2.28,1.68,.98c-.03,.06-.05,.13-.05,.21s.02,.15,.05,.21l-3.77,2.21-1.64,.96c-.11-.17-.3-.29-.52-.29v-6.36Zm0,7.63c.22,0,.41-.12,.52-.29l3.74,2.18,1.66,.97c-.03,.07-.06,.14-.06,.22s.02,.15,.06,.22l-3.76,2.2-1.82,1.06c-.07-.11-.2-.18-.34-.19v-6.36Zm0,7.23c.14,0,.26-.08,.34-.19l3.91,2.29,1.64,.96c-.04,.07-.06,.15-.06,.23s.02,.16,.06,.23l-3.74,2.19-1.68,.98c-.1-.16-.27-.26-.47-.27v-6.41Zm0,13.85v-6.25c.2,0,.37-.11,.47-.27l3.78,2.21,1.69,.99c-.03,.06-.05,.13-.05,.2s.02,.14,.05,.2l-3.79,2.21-1.68,.98c-.1-.16-.27-.26-.47-.27Zm6.31,3.76c-.18,0-.34,.1-.43,.25l-3.82-2.23-1.56-.91c.04-.08,.07-.18,.07-.28s-.02-.19-.07-.28l3.66-2.14,1.81-1.06c.08,.11,.2,.19,.35,.2v6.45Zm0-7.33c-.14,0-.27,.08-.35,.2l-3.91-2.28-1.56-.91c.04-.08,.07-.18,.07-.28s-.02-.2-.07-.28l3.66-2.14,1.76-1.03c.09,.13,.23,.21,.39,.22v6.5Zm0-7.49c-.16,0-.31,.09-.39,.22l-3.86-2.25-1.7-.99c.03-.06,.05-.12,.05-.2s-.02-.14-.05-.2l3.8-2.22,1.78-1.04c.08,.12,.22,.2,.37,.21v6.46Zm0-7.41c-.16,0-.29,.09-.37,.21l-3.88-2.27-1.52-.89c.05-.09,.08-.19,.08-.3s-.03-.21-.08-.3l3.62-2.11,1.79-1.05c.08,.12,.21,.2,.36,.2v6.5Zm0-7.42c-.15,0-.28,.09-.36,.2l-3.89-2.27-1.69-.99c.03-.06,.05-.13,.05-.2s-.02-.14-.05-.2l3.79-2.21,1.65-.96c.11,.17,.29,.28,.5,.29v6.35Zm0-7.6c-.21,0-.4,.12-.5,.29l-3.75-2.19-1.55-.91c.04-.08,.07-.18,.07-.28s-.03-.2-.07-.28l3.65-2.13,1.75-1.02c.09,.13,.24,.22,.41,.23v6.3Zm0-7.32c-.17,0-.32,.1-.41,.23l-3.85-2.25-1.65-.96c.04-.07,.06-.14,.06-.23s-.02-.16-.06-.23l3.75-2.19,1.66-.97c.1,.16,.28,.27,.49,.28v6.31Zm0-7.53c-.21,0-.39,.12-.49,.28l-3.76-2.2-1.54-.9c.05-.09,.07-.18,.07-.29s-.03-.2-.07-.29l1.34-.78,4.1-2.39c.08,.12,.21,.2,.36,.2v6.37Zm0-7.28c-.15,0-.28,.09-.36,.2l-5.49-3.21c.04-.08,.06-.16,.06-.26s-.02-.18-.06-.26l5.25-3.07c.13,.2,.35,.34,.6,.34v6.24Zm0-7.72c-.25,0-.47,.14-.6,.34l-2.54-1.49-2.77-1.62c.03-.06,.05-.14,.05-.22s-.02-.15-.05-.22l5.57-3.25c.08,.12,.2,.19,.35,.2v6.25Zm0-7.14c-.15,0-.27,.08-.35,.2l-2.79-1.63-2.76-1.61c.04-.07,.06-.14,.06-.22s-.02-.16-.06-.22l5.5-3.21c.09,.13,.24,.22,.41,.23v6.47Zm0-7.5c-.17,0-.32,.1-.41,.23l-2.74-1.6-2.73-1.6c.04-.07,.06-.15,.06-.24s-.02-.17-.06-.24l5.44-3.18c.09,.14,.25,.24,.43,.25v6.38Zm0-7.47c-.18,0-.34,.1-.43,.25l-2.71-1.58-2.67-1.56c.04-.08,.07-.18,.07-.28s-.02-.19-.07-.28l5.36-3.13c.1,.15,.27,.25,.46,.26v6.32Zm0-7.46c-.19,0-.36,.11-.46,.26l-2.69-1.57-2.65-1.55c.05-.09,.07-.18,.07-.29s-.03-.2-.07-.29l5.39-3.15c.09,.13,.23,.22,.4,.23v6.35Zm0-7.37c-.17,0-.32,.1-.4,.23l-2.74-1.6-2.79-1.63c.03-.06,.05-.13,.05-.21s-.02-.15-.05-.21l5.49-3.21c.09,.14,.25,.24,.44,.25v6.38Zm0-7.47c-.18,0-.34,.11-.44,.25l-2.71-1.58-2.7-1.58c.04-.08,.06-.16,.06-.26s-.02-.18-.06-.26L24.67,.88c.07,.1,.19,.17,.32,.18V7.53Zm.05-6.48c.13,0,.25-.08,.32-.18l5.64,3.3c-.03,.06-.05,.12-.05,.19s.02,.13,.05,.19l-4.82,2.82-.71,.41c-.09-.14-.25-.24-.43-.25V1.06Zm0,7.57c.18,0,.34-.1,.43-.25l5.51,3.22c-.03,.06-.05,.13-.05,.2s.02,.14,.05,.2l-5.54,3.24c-.09-.13-.23-.22-.4-.23v-6.38Zm0,7.4c.17,0,.32-.1,.4-.23l5.35,3.12c-.05,.09-.08,.2-.08,.31s.03,.22,.08,.31l-4.61,2.69-.69,.4c-.1-.15-.27-.25-.46-.26v-6.35Zm0,7.5c.19,0,.36-.11,.46-.26l5.5,3.21c-.03,.06-.05,.12-.05,.19s.02,.13,.05,.19l-5.52,3.23c-.09-.14-.25-.24-.43-.25v-6.32Zm0,7.41c.18,0,.34-.1,.43-.25l5.43,3.17c-.04,.07-.06,.16-.06,.25s.02,.17,.06,.25l-4.71,2.75-.74,.43c-.09-.13-.24-.22-.41-.23v-6.38Zm0,7.4c.17,0,.32-.1,.41-.23l5.57,3.25c-.03,.06-.05,.12-.05,.18s.02,.13,.05,.18l-5.62,3.29c-.08-.11-.2-.19-.35-.2v-6.47Zm0,7.37c.15,0,.27-.08,.35-.2l5.54,3.24c-.04,.07-.06,.15-.06,.23s.02,.16,.06,.23l-4.76,2.78-.53,.31c-.13-.2-.35-.34-.6-.34v-6.25Zm0,7.72c.25,0,.47-.14,.6-.34l5.18,3.03c-.05,.09-.07,.19-.07,.3s.03,.21,.07,.3l-4.42,2.58-1,.59c-.08-.12-.21-.2-.36-.2v-6.24Zm0,7.15c.15,0,.28-.09,.36-.2l3.89,2.27,1.57,.91c-.04,.08-.07,.17-.07,.27s.02,.19,.07,.27l-3.66,2.14-1.66,.97c-.1-.16-.28-.27-.49-.28v-6.37Zm0,7.59c.21,0,.39-.12,.49-.28l3.76,2.2,1.57,.92c-.04,.08-.07,.17-.07,.27s.02,.19,.07,.27l-3.67,2.14-1.75,1.02c-.09-.13-.24-.22-.41-.23v-6.31Zm0,7.34c.17,0,.32-.1,.41-.23l3.85,2.25,1.54,.9c-.05,.09-.07,.18-.07,.29s.03,.2,.07,.29l-3.64,2.13-1.65,.97c-.11-.17-.29-.28-.5-.29v-6.3Zm0,7.55c.21,0,.4-.12,.5-.29l3.75,2.19,1.69,.99c-.03,.06-.05,.13-.05,.21s.02,.14,.05,.2l-3.78,2.21-1.79,1.05c-.08-.12-.21-.2-.36-.2v-6.35Zm0,7.27c.15,0,.28-.09,.36-.2l3.89,2.27,1.53,.89c-.05,.09-.07,.19-.07,.29s.03,.21,.07,.29l-3.63,2.12-1.78,1.04c-.08-.12-.22-.2-.37-.21v-6.5Zm0,7.45c.16,0,.29-.09,.37-.21l3.88,2.27,1.68,.98c-.03,.06-.05,.13-.05,.21s.02,.14,.05,.2l-3.78,2.21-1.76,1.03c-.09-.13-.23-.22-.39-.22v-6.46Zm0,7.46c.16,0,.31-.09,.39-.22l3.86,2.25,1.64,.96c-.04,.07-.06,.15-.06,.23s.02,.16,.06,.23l-3.74,2.19-1.81,1.06c-.08-.11-.2-.19-.35-.2v-6.5Zm5.85,10.91l-3.69,2.16-1.72,1.01c-.09-.14-.25-.24-.43-.25v-6.45c.14,0,.27-.08,.35-.2l3.91,2.28,1.59,.93c-.04,.08-.06,.16-.06,.26s.02,.18,.06,.26Zm.47-.81c-.18,0-.35,.11-.44,.25l-3.81-2.23-1.69-.99c.03-.06,.05-.13,.05-.2s-.02-.14-.05-.2l3.79-2.21,1.76-1.03c.09,.13,.23,.22,.39,.22v6.38Zm0-7.38c-.16,0-.31,.09-.39,.22l-3.86-2.25-1.64-.96c.04-.07,.06-.15,.06-.23s-.02-.16-.06-.23l3.74-2.19,1.8-1.05c.08,.11,.2,.19,.35,.2v6.49Zm0-7.38c-.15,0-.27,.08-.35,.2l-3.9-2.28-1.66-.97c.03-.07,.06-.14,.06-.22s-.02-.15-.06-.22l3.76-2.2,1.65-.96c.11,.17,.29,.28,.5,.29v6.36Zm0-7.61c-.21,0-.4,.12-.5,.29l-3.75-2.19-1.68-.98c.03-.06,.05-.13,.05-.21s-.02-.15-.05-.21l3.77-2.21,1.8-1.05c.08,.12,.2,.19,.35,.2v6.36Zm0-7.26c-.15,0-.27,.09-.35,.2l-3.9-2.28-1.53-.9c.05-.09,.07-.19,.07-.29s-.03-.21-.07-.29l3.63-2.12,1.66-.97c.1,.16,.29,.27,.49,.28v6.37Zm0-7.6c-.21,0-.39,.12-.49,.28l-3.76-2.2-1.63-.95c.04-.07,.06-.15,.06-.24s-.02-.17-.06-.24l3.73-2.18,1.69-.99c.1,.15,.27,.26,.46,.26v6.24Zm0-7.4c-.19,0-.36,.11-.46,.27l-3.79-2.21-1.54-.9c.05-.09,.07-.18,.07-.29s-.03-.2-.07-.29l3.64-2.13,1.69-.99c.1,.16,.27,.26,.47,.27v6.27Zm0-7.44c-.2,0-.37,.11-.47,.27l-3.78-2.21-1.68-.98c.03-.06,.05-.13,.05-.21s-.02-.15-.05-.21l5.42-3.17c.11,.17,.29,.28,.51,.29v6.22Zm0-7.48c-.21,0-.4,.12-.51,.29l-5.18-3.03c.06-.1,.09-.22,.09-.35s-.03-.25-.09-.35l5.29-3.09c.09,.13,.23,.22,.4,.23v6.3Zm0-7.3c-.17,0-.31,.1-.4,.23l-5.54-3.24c.03-.06,.05-.13,.05-.2s-.02-.14-.05-.21l5.62-3.29c.07,.1,.18,.17,.31,.18v6.53Zm0-7.34c-.13,0-.24,.08-.31,.18l-5.57-3.25c.04-.07,.06-.15,.06-.24s-.02-.17-.06-.24l5.46-3.19c.09,.14,.25,.23,.42,.24v6.5Zm0-7.56c-.18,0-.33,.1-.42,.24l-5.43-3.17c.04-.08,.06-.16,.06-.25s-.02-.18-.06-.25l5.52-3.23c.07,.11,.19,.18,.33,.19v6.48Zm0-7.33c-.14,0-.26,.08-.33,.19l-5.5-3.21c.04-.08,.07-.17,.07-.27s-.02-.19-.07-.27l5.29-3.09c.11,.18,.31,.3,.53,.31v6.35Zm0-7.67c-.22,0-.42,.13-.53,.31l-5.35-3.13c.04-.07,.06-.15,.06-.24s-.02-.16-.06-.24l5.54-3.24c.08,.11,.2,.19,.35,.2v6.33Zm0-7.22c-.14,0-.27,.08-.35,.2l-5.5-3.22c.04-.08,.06-.16,.06-.25s-.02-.18-.06-.25l5.53-3.23c.07,.11,.19,.18,.33,.18v6.57ZM37.76,1.43c.27,0,.5-.15,.64-.36l5.19,3.03c-.04,.08-.07,.17-.07,.27s.02,.19,.07,.27l-4.69,2.74-.61,.36c-.11-.18-.31-.29-.53-.3V1.43Zm0,7.31c.22,0,.42-.13,.53-.3l5.45,3.19c-.03,.05-.04,.11-.04,.18s.02,.13,.04,.18l-5.53,3.23c-.1-.15-.26-.25-.45-.26v-6.21Zm0,7.35c.19,0,.36-.11,.45-.26l5.33,3.11c-.05,.09-.07,.19-.07,.3s.03,.21,.07,.3l-4.64,2.71-.69,.41c-.1-.15-.26-.25-.45-.26v-6.31Zm0,7.43c.19,0,.35-.11,.45-.26l5.37,3.14c-.04,.08-.07,.18-.07,.27s.02,.19,.07,.27l-5.36,3.13c-.1-.15-.26-.25-.45-.26v-6.31Zm0,7.44c.19,0,.36-.11,.45-.26l5.39,3.15c-.04,.08-.06,.16-.06,.26s.02,.18,.06,.26l-4.7,2.74-.74,.43c-.09-.13-.24-.22-.41-.23v-6.36Zm0,7.38c.17,0,.32-.1,.41-.23l5.4,3.16c-.04,.08-.07,.18-.07,.28s.02,.2,.07,.28l-5.49,3.21c-.07-.1-.19-.17-.32-.18v-6.51Zm0,7.34c.13,0,.25-.08,.32-.18l5.56,3.25c-.04,.07-.06,.15-.06,.24s.02,.17,.06,.24l-4.75,2.77-.78,.45c-.08-.12-.21-.19-.36-.2v-6.56Zm0,7.48c.15,0,.28-.09,.36-.2l5.54,3.24c-.04,.07-.06,.15-.06,.23s.02,.16,.06,.23l-4.54,2.65-.97,.57c-.08-.13-.23-.21-.39-.22v-6.49Zm0,7.47c.16,0,.31-.09,.39-.22l3.86,2.26,1.56,.91c-.04,.08-.07,.18-.07,.28s.03,.19,.07,.28l-3.66,2.14-1.69,.99c-.1-.16-.27-.26-.47-.27v-6.36Zm0,7.53c.2,0,.37-.11,.47-.27l3.78,2.21,1.68,.98c-.03,.06-.05,.13-.05,.21s.02,.14,.05,.21l-3.78,2.21-1.64,.96c-.11-.17-.3-.28-.51-.29v-6.21Zm0,7.49c.22,0,.4-.12,.51-.29l3.74,2.18,1.61,.94c-.04,.08-.06,.16-.06,.25s.02,.17,.06,.25l-3.71,2.17-1.75,1.02c-.09-.13-.24-.22-.41-.23v-6.28Zm0,7.31c.17,0,.32-.1,.41-.23l3.84,2.24,1.67,.98c-.03,.06-.05,.14-.05,.21s.02,.15,.05,.21l-3.77,2.2-1.77,1.03c-.08-.13-.22-.21-.38-.22v-6.43Zm0,7.41c.16,0,.3-.09,.38-.22l3.87,2.26,1.71,1c-.03,.06-.05,.12-.05,.19s.02,.13,.05,.19l-3.81,2.22-1.75,1.03c-.09-.13-.23-.22-.4-.23v-6.44Zm0,7.45c.17,0,.31-.1,.4-.23l3.85,2.25,1.62,.94c-.04,.07-.06,.16-.06,.25s.02,.17,.06,.24l-3.71,2.17-1.77,1.03c-.08-.13-.23-.21-.39-.22v-6.44Zm0,7.42c.16,0,.3-.09,.39-.22l3.86,2.26,1.58,.93c-.04,.08-.07,.17-.07,.26s.02,.18,.07,.26l-3.68,2.15-1.67,.97c-.1-.16-.28-.27-.48-.28v-6.34ZM31.4,4.78c.14,0,.25-.08,.33-.18l2.82,1.65,2.61,1.53c-.05,.09-.08,.2-.08,.31s.03,.22,.08,.31l-5.41,3.16c-.08-.11-.2-.19-.35-.2V4.78Zm0,7.46c.14,0,.27-.08,.35-.2l2.8,1.63,2.69,1.57c-.04,.08-.07,.17-.07,.27s.02,.19,.07,.27l-5.3,3.1c-.11-.18-.31-.3-.53-.31v-6.33Zm0,7.65c.22,0,.42-.13,.53-.31l2.61,1.52,2.69,1.57c-.04,.08-.06,.17-.06,.26s.02,.18,.07,.26l-5.51,3.22c-.07-.11-.19-.18-.33-.19v-6.35Zm0,7.2c.14,0,.26-.08,.33-.19l2.81,1.64,2.69,1.57c-.04,.08-.07,.17-.07,.27s.02,.19,.07,.27l-5.41,3.16c-.09-.14-.25-.23-.42-.24v-6.48Zm0,7.54c.18,0,.33-.1,.42-.24l2.72,1.59,2.74,1.6c-.04,.07-.06,.15-.06,.24s.02,.17,.06,.24l-5.57,3.25c-.07-.1-.18-.17-.31-.18v-6.5Zm0,7.31c.13,0,.24-.08,.31-.18l2.83,1.65,2.82,1.65c-.03,.06-.05,.12-.05,.19s.02,.13,.05,.19l-5.57,3.25c-.09-.13-.23-.22-.4-.23v-6.53Zm0,7.53c.17,0,.31-.09,.4-.23l2.75,1.61,2.79,1.63c-.03,.06-.05,.13-.05,.21s.02,.15,.05,.21l-5.42,3.17c-.11-.17-.29-.28-.51-.29v-6.3Zm0,7.57c.21,0,.4-.12,.51-.29l5.39,3.15c-.04,.07-.06,.14-.06,.23s.02,.16,.06,.23l-5.43,3.17c-.1-.16-.27-.26-.47-.27v-6.22Zm0,7.39c.2,0,.37-.11,.47-.27l3.78,2.21,1.57,.91c-.04,.08-.07,.18-.07,.27s.02,.19,.07,.27l-3.66,2.14-1.69,.99c-.1-.15-.27-.26-.46-.27v-6.27Zm0,7.43c.19,0,.36-.11,.46-.26l3.79,2.21,1.52,.89c-.05,.09-.08,.19-.08,.3s.03,.21,.08,.3l-3.62,2.11-1.66,.97c-.1-.16-.29-.27-.49-.28v-6.24Zm0,7.47c.21,0,.39-.12,.49-.28l3.76,2.2,1.63,.95c-.04,.07-.06,.15-.06,.24s.02,.17,.06,.24l-3.73,2.18-1.8,1.05c-.08-.11-.2-.19-.35-.2v-6.37Zm0,7.27c.15,0,.27-.08,.35-.2l3.9,2.28,1.65,.97c-.04,.07-.06,.14-.06,.22s.02,.16,.06,.22l-3.75,2.19-1.65,.96c-.11-.17-.29-.28-.5-.29v-6.36Zm0,7.61c.21,0,.4-.12,.5-.29l3.75,2.19,1.64,.96c-.04,.07-.06,.15-.06,.23s.02,.16,.06,.23l-3.73,2.18-1.8,1.05c-.08-.12-.2-.19-.35-.2v-6.36Zm0,7.26c.15,0,.27-.08,.35-.2l3.9,2.28,1.65,.96c-.04,.07-.06,.14-.06,.23s.02,.16,.06,.23l-3.75,2.19-1.76,1.03c-.09-.13-.23-.22-.39-.22v-6.49Zm0,13.87v-6.38c.16,0,.31-.09,.39-.22l3.86,2.25,1.55,.91c-.04,.08-.07,.18-.07,.28s.03,.2,.07,.28l-3.65,2.13-1.71,1c-.09-.15-.26-.24-.44-.25Zm6.31,3.6c-.23,0-.43,.13-.55,.31l-3.71-2.17-1.59-.93c.04-.08,.06-.17,.06-.26s-.02-.18-.06-.26l3.69-2.16,1.67-.98c.1,.16,.28,.27,.48,.28v6.16Zm0-7.36c-.2,0-.38,.12-.48,.28l-3.77-2.2-1.64-.96c.04-.07,.06-.15,.06-.23s-.02-.16-.06-.23l3.74-2.19,1.76-1.03c.08,.13,.23,.21,.39,.22v6.34Zm0-7.32c-.16,0-.3,.09-.39,.22l-3.86-2.26-1.69-.98c.03-.06,.05-.13,.05-.21s-.02-.14-.05-.21l3.78-2.21,1.76-1.03c.09,.13,.23,.22,.4,.23v6.44Zm0-7.45c-.17,0-.31,.1-.4,.23l-3.85-2.25-1.53-.9c.05-.09,.07-.19,.07-.29s-.03-.21-.07-.29l3.63-2.12,1.77-1.03c.08,.13,.22,.21,.38,.22v6.44Zm0-7.42c-.16,0-.3,.09-.38,.22l-3.87-2.26-1.69-.99c.03-.06,.05-.13,.05-.2s-.02-.14-.05-.21l3.78-2.21,1.74-1.02c.09,.13,.24,.22,.41,.23v6.43Zm0-7.46c-.17,0-.32,.1-.41,.23l-3.84-2.25-1.54-.9c.05-.09,.07-.18,.07-.29s-.03-.2-.07-.29l3.64-2.13,1.64-.96c.11,.17,.3,.28,.51,.29v6.28Zm0-7.56c-.22,0-.4,.12-.51,.29l-3.74-2.18-1.57-.92c.04-.08,.07-.17,.07-.27s-.02-.19-.07-.27l3.67-2.14,1.69-.99c.1,.16,.27,.26,.47,.27v6.21Zm0-7.38c-.2,0-.37,.11-.47,.27l-3.78-2.21-1.57-.92c.04-.08,.07-.17,.07-.27s-.02-.19-.07-.27l1.36-.8,4.07-2.38c.08,.13,.23,.21,.39,.22v6.36Zm0-7.34c-.16,0-.31,.09-.39,.22l-5.39-3.15c.05-.09,.07-.19,.07-.3s-.03-.21-.07-.3l5.42-3.17c.08,.12,.21,.2,.36,.2v6.49Zm0-7.4c-.15,0-.28,.09-.36,.2l-2.79-1.63-2.75-1.61c.04-.07,.06-.15,.06-.23s-.02-.16-.06-.23l5.57-3.25c.07,.1,.19,.17,.32,.18v6.56Zm0-7.39c-.13,0-.25,.08-.32,.18l-2.82-1.65-2.83-1.65c.03-.06,.05-.12,.05-.18s-.02-.13-.05-.18l5.57-3.25c.09,.13,.24,.22,.41,.23v6.51Zm0-7.53c-.17,0-.32,.1-.41,.23l-2.74-1.6-2.72-1.59c.04-.07,.06-.16,.06-.25s-.02-.17-.06-.25l5.41-3.16c.1,.15,.26,.25,.45,.26v6.36Zm0-7.49c-.19,0-.36,.11-.45,.26l-2.69-1.57-2.81-1.64c.03-.06,.05-.12,.05-.19s-.02-.13-.05-.19l5.51-3.22c.1,.15,.26,.25,.45,.26v6.31Zm0-7.43c-.19,0-.35,.11-.45,.26l-2.7-1.58-2.61-1.52c.05-.09,.08-.2,.08-.31s-.03-.22-.08-.31l5.3-3.1c.1,.15,.26,.25,.45,.26v6.31Zm0-7.44c-.19,0-.36,.11-.45,.26l-2.69-1.57-2.8-1.63c.03-.06,.05-.13,.05-.2s-.02-.14-.05-.2l5.41-3.16c.11,.18,.31,.29,.53,.3v6.21Zm0-7.52c-.22,0-.42,.13-.53,.3l-2.62-1.53-2.82-1.65c.03-.06,.05-.12,.05-.19s-.02-.13-.05-.19l5.32-3.11c.13,.21,.37,.36,.64,.36V7.43Zm5.94,108.69l-3.74,2.18-1.61,.94c-.12-.18-.32-.3-.55-.31v-6.16c.2,0,.38-.12,.48-.28l3.77,2.2,1.64,.96c-.04,.07-.06,.15-.06,.23s.02,.16,.06,.23Zm.42-.73c-.16,0-.31,.09-.39,.22l-3.86-2.25-1.55-.91c.05-.08,.07-.18,.07-.28s-.03-.2-.07-.28l3.65-2.13,1.7-1c.1,.15,.26,.25,.45,.26v6.37Zm0-7.5c-.19,0-.35,.11-.45,.26l-3.8-2.22-1.65-.96c.04-.07,.06-.14,.06-.23s-.02-.16-.06-.23l3.75-2.19,1.73-1.01c.09,.14,.24,.23,.42,.24v6.34Zm0-7.4c-.18,0-.33,.1-.42,.24l-3.83-2.24-1.64-.96c.04-.07,.06-.15,.06-.23s-.02-.16-.06-.23l3.74-2.18,1.82-1.07c.07,.11,.19,.18,.33,.19v6.48Zm0-7.33c-.14,0-.26,.08-.33,.19l-3.92-2.29-1.65-.96c.04-.07,.06-.14,.06-.22s-.02-.16-.06-.22l3.75-2.19,1.79-1.04c.08,.12,.21,.2,.37,.21v6.54Zm0-7.48c-.15,0-.29,.09-.37,.21l-3.88-2.27-1.63-.95c.04-.07,.06-.15,.06-.24s-.02-.17-.06-.24l3.72-2.18,1.73-1.01c.09,.14,.25,.23,.43,.24v6.43Zm0-7.5c-.18,0-.33,.1-.43,.24l-3.83-2.24-1.52-.89c.05-.09,.08-.19,.08-.3s-.03-.21-.08-.3l3.62-2.11,1.8-1.05c.08,.12,.21,.19,.36,.2v6.45Zm0-7.35c-.15,0-.28,.09-.36,.2l-3.89-2.28-1.57-.92c.04-.08,.07-.17,.07-.27s-.02-.19-.07-.27l3.66-2.14,1.68-.98c.1,.16,.27,.26,.47,.27v6.39Zm0-7.57c-.2,0-.37,.11-.47,.27l-3.78-2.21-1.65-.96c.04-.07,.06-.15,.06-.23s-.02-.16-.06-.23l5.51-3.22c.08,.13,.23,.21,.39,.22v6.35Zm0-7.34c-.16,0-.31,.09-.39,.22l-5.54-3.24c.03-.06,.05-.13,.05-.21s-.02-.15-.05-.21l.04-.02,5.49-3.2c.09,.13,.24,.22,.41,.23v6.43Zm0-7.45c-.17,0-.32,.1-.41,.23l-5.56-3.25c.03-.06,.05-.12,.05-.19s-.02-.13-.05-.19l5.49-3.21c.1,.16,.28,.26,.48,.27v6.33Zm0-7.52c-.2,0-.37,.11-.48,.27l-5.41-3.16c.04-.07,.06-.15,.06-.24s-.02-.17-.06-.24l5.44-3.18c.09,.15,.26,.24,.44,.25v6.29Zm0-7.39c-.18,0-.35,.11-.44,.25l-5.39-3.15c.04-.08,.07-.17,.07-.27s-.02-.19-.07-.27l5.36-3.13c.1,.16,.27,.26,.47,.27v6.3Zm0-7.47c-.2,0-.37,.11-.47,.27l-5.37-3.14c.04-.08,.07-.17,.07-.26s-.02-.18-.07-.26l5.33-3.12c.11,.17,.29,.28,.5,.29v6.22Zm0-7.48c-.21,0-.4,.12-.5,.29l-5.33-3.11c.04-.08,.07-.17,.07-.27s-.02-.19-.07-.27l5.52-3.23c.07,.1,.18,.17,.31,.17v6.41Zm0-7.21c-.13,0-.24,.07-.31,.17l-5.45-3.18c.05-.09,.08-.2,.08-.31s-.03-.22-.08-.31l5.3-3.1c.1,.15,.27,.25,.46,.26v6.46ZM50.49,1.33c.23,0,.44-.13,.55-.32l5.42,3.17c-.03,.06-.05,.12-.05,.18s.02,.13,.05,.18l-4.83,2.82-.57,.33c-.12-.19-.33-.32-.57-.33V1.33Zm0,7.46c.24,0,.45-.14,.57-.33l5.24,3.06c-.04,.08-.07,.18-.07,.28s.02,.19,.07,.28l-5.38,3.14c-.09-.14-.25-.24-.43-.25v-6.18Zm0,7.27c.18,0,.34-.1,.43-.25l5.45,3.18c-.04,.07-.06,.15-.06,.24s.02,.17,.06,.24l-4.74,2.77-.61,.36c-.11-.18-.31-.29-.53-.3v-6.23Zm0,7.55c.22,0,.42-.13,.53-.3l5.39,3.15c-.03,.06-.05,.14-.05,.21s.02,.15,.05,.21l-5.52,3.23c-.09-.13-.23-.22-.4-.23v-6.27Zm0,7.29c.17,0,.32-.1,.4-.23l5.38,3.15c-.05,.09-.07,.19-.07,.29s.03,.21,.07,.29l-4.64,2.71-.78,.46c-.08-.12-.21-.2-.37-.21v-6.46Zm0,7.39c.15,0,.29-.09,.37-.21l5.56,3.25c-.03,.06-.05,.14-.05,.21s.02,.15,.05,.21l-5.49,3.2c-.09-.15-.26-.24-.44-.25v-6.42Zm0,7.52c.18,0,.35-.11,.44-.25l5.47,3.19c-.04,.07-.06,.14-.06,.22s.02,.16,.06,.22l-4.77,2.79-.69,.4c-.1-.15-.26-.25-.45-.26v-6.32Zm0,7.45c.19,0,.35-.11,.45-.26l5.48,3.2c-.03,.06-.05,.14-.05,.21s.02,.15,.05,.21l-4.56,2.67-.85,.5c-.11-.17-.29-.28-.51-.29v-6.24Zm0,7.5c.21,0,.4-.12,.51-.29l3.74,2.19,1.53,.89c-.05,.09-.07,.19-.07,.3s.03,.21,.07,.3l-3.63,2.12-1.67,.97c-.1-.16-.28-.27-.49-.28v-6.2Zm0,7.41c.2,0,.38-.12,.49-.28l3.76,2.2,1.53,.89c-.05,.09-.07,.19-.07,.3s.03,.21,.07,.3l-3.62,2.12-1.72,1c-.09-.14-.25-.24-.44-.25v-6.28Zm0,7.38c.18,0,.34-.11,.44-.25l3.82,2.23,1.57,.92c-.04,.08-.07,.17-.07,.27s.02,.19,.07,.27l-3.66,2.14-1.77,1.04c-.08-.12-.22-.21-.38-.22v-6.4Zm0,7.37c.16,0,.3-.09,.38-.22l3.87,2.26,1.55,.91c-.05,.08-.07,.18-.07,.28s.03,.2,.07,.28l-3.65,2.13-1.87,1.09c-.06-.09-.16-.15-.28-.16v-6.58Zm0,7.32c.12,0,.22-.07,.28-.16l3.97,2.32,1.47,.86c-.05,.1-.08,.21-.08,.33s.03,.23,.08,.33l-3.57,2.09-1.69,.99c-.1-.15-.27-.26-.47-.27v-6.49Zm0,7.65c.2,0,.37-.11,.47-.27l3.79,2.21,1.63,.95c-.04,.07-.06,.15-.06,.24s.02,.16,.06,.24l-3.73,2.18-1.61,.94c-.12-.18-.32-.3-.55-.31v-6.17Zm0,7.53c.23,0,.43-.13,.55-.31l3.7,2.16,1.59,.93c-.04,.08-.07,.17-.07,.26s.02,.18,.07,.26l-3.68,2.15-1.61,.94c-.12-.18-.32-.3-.55-.31v-6.08ZM44.12,4.94c.19,0,.36-.11,.46-.26l2.69,1.57,2.57,1.5c-.05,.1-.08,.21-.08,.34s.03,.24,.08,.34l-5.4,3.16c-.07-.1-.18-.17-.31-.17V4.94Zm0,7.26c.13,0,.24-.07,.31-.17l2.84,1.66,2.71,1.58c-.04,.08-.06,.16-.06,.25s.02,.18,.06,.25l-5.35,3.12c-.11-.17-.29-.28-.5-.29v-6.41Zm0,7.66c.21,0,.4-.12,.5-.29l2.64,1.54,2.61,1.53c-.05,.09-.08,.2-.08,.31s.03,.22,.08,.31l-5.29,3.09c-.1-.16-.27-.26-.47-.27v-6.22Zm0,7.39c.2,0,.37-.11,.47-.27l2.67,1.56,2.74,1.6c-.04,.07-.06,.15-.06,.23s.02,.16,.06,.24l-5.44,3.18c-.09-.15-.26-.24-.44-.25v-6.3Zm0,7.4c.19,0,.35-.11,.44-.25l2.7,1.58,2.78,1.62c-.03,.06-.05,.14-.05,.21s.02,.15,.05,.21l-5.45,3.18c-.1-.16-.28-.26-.48-.27v-6.29Zm0,7.48c.2,0,.37-.11,.48-.27l2.67,1.56,2.7,1.58c-.04,.08-.06,.16-.06,.26s.02,.18,.06,.26l-5.44,3.18c-.09-.13-.24-.22-.41-.23v-6.33Zm0,7.35c.17,0,.32-.1,.41-.23l2.74,1.6,2.69,1.57c-.04,.08-.07,.17-.07,.26s.02,.18,.07,.26l-5.45,3.18c-.08-.13-.23-.21-.39-.22v-6.43Zm0,7.41c.16,0,.31-.09,.39-.22l5.39,3.15c-.05,.09-.07,.19-.07,.3s.03,.21,.07,.3l-5.31,3.1c-.1-.16-.27-.26-.47-.27v-6.35Zm0,7.53c.2,0,.37-.11,.47-.27l3.78,2.21,1.55,.9c-.05,.08-.07,.18-.07,.29s.03,.2,.07,.29l-3.65,2.13-1.8,1.05c-.08-.12-.21-.19-.36-.2v-6.39Zm0,7.3c.15,0,.28-.09,.36-.2l3.89,2.28,1.6,.93c-.04,.08-.06,.16-.06,.26s.02,.18,.06,.25l-3.7,2.16-1.73,1.01c-.09-.14-.25-.23-.43-.24v-6.45Zm0,7.51c.18,0,.33-.1,.43-.24l3.83,2.24,1.65,.97c-.03,.07-.06,.14-.06,.22s.02,.16,.06,.22l-3.75,2.19-1.79,1.04c-.08-.12-.21-.2-.37-.21v-6.43Zm0,7.37c.15,0,.29-.09,.37-.21l3.88,2.27,1.76,1.03s-.04,.1-.04,.16,.02,.11,.04,.16l-3.85,2.25-1.83,1.07c-.07-.11-.19-.18-.33-.19v-6.54Zm0,7.39c.14,0,.26-.08,.33-.19l3.92,2.29,1.57,.92c-.04,.08-.07,.17-.07,.27s.02,.19,.07,.27l-3.66,2.14-1.74,1.01c-.09-.14-.24-.23-.42-.24v-6.48Zm0,7.54c.18,0,.33-.1,.42-.24l3.83,2.24,1.49,.87c-.05,.1-.08,.2-.08,.32s.03,.23,.08,.32l-3.58,2.09-1.7,.99c-.1-.15-.26-.25-.45-.26v-6.34Zm0,13.84v-6.37c.19,0,.35-.11,.45-.26l3.8,2.22,1.49,.87c-.05,.1-.08,.2-.08,.32s.03,.23,.08,.32l-3.58,2.09-1.76,1.03c-.09-.13-.23-.22-.39-.22Zm6.31,3.66c-.18,0-.35,.11-.44,.25l-3.81-2.23-1.64-.96c.04-.07,.06-.15,.06-.23s-.02-.16-.06-.23l3.74-2.18,1.61-.94c.12,.18,.32,.3,.55,.31v6.21Zm0-7.56c-.23,0-.43,.13-.55,.31l-3.7-2.16-1.58-.93c.04-.08,.07-.17,.07-.26s-.02-.19-.07-.26l3.68-2.15,1.61-.94c.12,.18,.32,.3,.55,.31v6.08Zm0-7.43c-.23,0-.43,.13-.55,.31l-3.7-2.16-1.62-.95c.04-.07,.06-.16,.06-.24s-.02-.17-.06-.25l3.71-2.17,1.69-.99c.1,.16,.27,.26,.47,.27v6.17Zm0-7.34c-.2,0-.37,.11-.47,.27l-3.78-2.21-1.71-1c.03-.06,.05-.12,.05-.19s-.02-.13-.05-.19l3.8-2.22,1.87-1.09c.06,.09,.16,.15,.28,.16v6.49Zm0-7.22c-.12,0-.22,.07-.28,.16l-3.97-2.32-1.67-.98c.03-.06,.05-.14,.05-.21s-.02-.15-.05-.21l3.77-2.2,1.77-1.04c.08,.12,.22,.21,.38,.22v6.58Zm0-7.55c-.16,0-.3,.09-.38,.22l-3.87-2.26-1.61-.94c.04-.07,.06-.16,.06-.25s-.02-.17-.06-.25l3.71-2.17,1.72-1c.09,.14,.25,.24,.44,.25v6.4Zm0-7.5c-.18,0-.34,.11-.44,.25l-3.81-2.23-1.68-.98c.03-.06,.05-.13,.05-.21s-.02-.15-.05-.21l3.78-2.21,1.67-.97c.1,.16,.28,.27,.49,.28v6.28Zm0-7.49c-.2,0-.38,.12-.49,.28l-3.77-2.2-1.56-.91c.04-.08,.07-.18,.07-.28s-.03-.19-.07-.28l1.36-.79,3.95-2.31c.11,.17,.29,.28,.51,.29v6.2Zm0-7.46c-.21,0-.4,.12-.51,.29l-5.39-3.15c.04-.07,.06-.15,.06-.23s-.02-.16-.06-.23l5.45-3.18c.1,.15,.26,.25,.45,.26v6.24Zm0-7.37c-.19,0-.35,.11-.45,.26l-2.69-1.57-2.74-1.6c.04-.07,.06-.15,.06-.24s-.02-.17-.06-.24l5.44-3.18c.09,.15,.26,.24,.44,.25v6.32Zm0-7.42c-.18,0-.35,.11-.44,.25l-2.7-1.58-2.67-1.56c.04-.08,.07-.18,.07-.28s-.03-.2-.07-.28l5.44-3.18c.08,.12,.21,.2,.37,.21v6.42Zm0-7.35c-.15,0-.29,.09-.37,.21l-2.78-1.62-2.7-1.58c.04-.08,.06-.16,.06-.26s-.02-.18-.06-.26l5.44-3.18c.09,.13,.23,.22,.4,.23v6.46Zm0-7.48c-.17,0-.32,.1-.4,.23l-2.74-1.6-2.67-1.56c.04-.08,.07-.18,.07-.27s-.02-.19-.07-.27l5.29-3.09c.11,.18,.31,.29,.53,.3v6.27Zm0-7.58c-.22,0-.42,.13-.53,.3l-2.61-1.53-2.64-1.54c.05-.09,.07-.19,.07-.3s-.03-.21-.07-.3l5.35-3.12c.09,.14,.25,.24,.43,.25v6.23Zm0-7.32c-.18,0-.34,.1-.43,.25l-2.71-1.58-2.84-1.66c.03-.05,.04-.11,.04-.18s-.02-.13-.04-.18l5.41-3.16c.12,.19,.33,.32,.57,.33v6.18Zm0-7.6c-.24,0-.45,.14-.57,.33l-2.57-1.5-2.68-1.57c.04-.08,.07-.17,.07-.27s-.02-.19-.07-.27l5.27-3.08c.12,.18,.32,.31,.55,.32V7.37Zm5.97,108.72l-3.76,2.2-1.71,1c-.09-.15-.26-.24-.44-.25v-6.21c.23,0,.43-.13,.55-.31l3.7,2.16,1.67,.97c-.03,.07-.05,.14-.05,.22s.02,.15,.05,.21Zm.39-.68c-.15,0-.29,.09-.37,.21l-3.88-2.27-1.49-.87c.05-.1,.08-.21,.08-.32s-.03-.22-.08-.32l3.58-2.09,1.7-1c.1,.15,.26,.25,.45,.26v6.4Zm0-7.53c-.19,0-.35,.11-.45,.26l-3.8-2.22-1.49-.87c.05-.1,.08-.21,.08-.32s-.03-.22-.08-.32l3.58-2.09,1.75-1.02c.09,.13,.23,.22,.4,.23v6.36Zm0-7.38c-.17,0-.32,.1-.4,.23l-3.85-2.25-1.57-.92c.04-.08,.07-.17,.07-.27s-.02-.19-.07-.27l3.67-2.14,1.59-.93c.12,.19,.33,.31,.56,.32v6.23Zm0-7.62c-.24,0-.44,.13-.56,.32l-3.69-2.15-1.75-1.03s.04-.1,.04-.16-.02-.11-.04-.16l3.85-2.25,1.67-.98c.1,.16,.28,.27,.48,.28v6.14Zm0-7.34c-.2,0-.38,.12-.48,.28l-3.77-2.2-1.66-.97c.04-.07,.06-.14,.06-.22s-.02-.16-.06-.22l3.75-2.19,1.69-.99c.1,.16,.27,.26,.47,.27v6.25Zm0-7.42c-.2,0-.37,.11-.47,.27l-3.79-2.21-1.6-.93c.04-.08,.06-.16,.06-.26s-.02-.18-.06-.25l3.7-2.16,1.64-.96c.11,.17,.29,.28,.51,.29v6.22Zm0-7.48c-.21,0-.4,.12-.51,.29l-3.74-2.19-1.55-.9c.05-.09,.07-.18,.07-.29s-.03-.2-.07-.29l3.65-2.13,1.65-.96c.11,.17,.29,.28,.51,.29v6.17Zm0-7.43c-.21,0-.4,.12-.51,.29l-3.75-2.19-1.53-.89c.05-.09,.07-.19,.07-.3s-.03-.21-.07-.3l5.42-3.16c.08,.12,.21,.2,.36,.21v6.34Zm0-7.27c-.15,0-.28,.09-.36,.21l-5.47-3.2c.04-.08,.07-.17,.07-.26s-.02-.19-.07-.26l5.45-3.19c.08,.13,.22,.21,.38,.22v6.49Zm0-7.46c-.16,0-.3,.09-.38,.22l-5.46-3.19c.04-.08,.06-.16,.06-.26s-.02-.18-.06-.26l5.48-3.2c.08,.12,.21,.2,.36,.21v6.49Zm0-7.41c-.15,0-.28,.09-.36,.21l-5.56-3.25c.03-.06,.05-.14,.05-.21s-.02-.15-.05-.21l5.42-3.17c.11,.17,.29,.28,.5,.29v6.35Zm0-7.59c-.21,0-.39,.12-.5,.29l-5.39-3.15c.04-.07,.06-.15,.06-.24s-.02-.16-.06-.23l5.52-3.22c.08,.12,.21,.2,.37,.21v6.35Zm0-7.28c-.15,0-.29,.09-.37,.21l-5.39-3.15c.05-.09,.08-.2,.08-.31s-.03-.22-.08-.31l5.35-3.13c.09,.13,.24,.22,.41,.23v6.46Zm0-7.48c-.17,0-.32,.1-.41,.23l-5.45-3.18c.04-.08,.06-.16,.06-.25s-.02-.18-.06-.25l5.38-3.14c.1,.16,.27,.26,.47,.27v6.33Zm0-7.51c-.2,0-.37,.11-.47,.27l-5.24-3.06c.05-.1,.08-.21,.08-.34s-.03-.24-.08-.34l5.4-3.15c.07,.1,.18,.17,.32,.18v6.44Zm.05-6.44c.13,0,.25-.08,.32-.18l5.57,3.25c-.04,.07-.06,.15-.06,.24s.02,.16,.06,.24l-2.92,1.71-2.49,1.46c-.1-.16-.27-.26-.47-.27V4.77Zm0,7.62c.2,0,.37-.11,.47-.27l5.22,3.05c-.06,.1-.09,.22-.09,.35s.03,.24,.09,.35l-2.78,1.62-2.51,1.47c-.09-.13-.24-.22-.41-.23v-6.33Zm0,7.36c.17,0,.32-.1,.41-.23l5.47,3.2c-.04,.07-.06,.15-.06,.24s.02,.17,.06,.24l-2.91,1.7-2.6,1.52c-.08-.12-.21-.2-.37-.21v-6.46Zm0,7.39c.15,0,.29-.09,.37-.21l5.48,3.2c-.04,.08-.06,.16-.06,.26s.02,.18,.06,.26l-2.88,1.68-2.47,1.44c-.11-.17-.29-.28-.5-.29v-6.35Zm0,7.59c.21,0,.39-.12,.5-.29l5.39,3.15c-.04,.07-.06,.15-.06,.23s.02,.16,.06,.23l-2.91,1.7-2.62,1.53c-.08-.12-.21-.2-.36-.21v-6.35Zm0,7.28c.15,0,.28-.09,.36-.21l5.41,3.16c-.05,.09-.08,.19-.08,.3s.03,.21,.08,.3l-2.84,1.66-2.55,1.49c-.08-.13-.22-.21-.38-.22v-6.49Zm0,7.46c.16,0,.3-.09,.38-.22l5.33,3.12c-.05,.1-.08,.21-.08,.33s.03,.23,.08,.33l-2.77,1.62-2.59,1.51c-.08-.12-.21-.2-.36-.21v-6.49Zm0,7.41c.15,0,.28-.09,.36-.21l.16,.09,5.31,3.11c-.04,.08-.07,.17-.07,.26s.02,.18,.07,.26l-5.33,3.12c-.11-.17-.29-.28-.51-.29v-6.34Zm0,7.6c.21,0,.4-.12,.51-.29l5.36,3.13c-.04,.07-.06,.16-.06,.24s.02,.17,.06,.24l-2.55,1.49-2.81,1.65c-.11-.17-.29-.28-.51-.29v-6.17Zm0,7.44c.21,0,.4-.12,.51-.29l5.42,3.17c-.03,.06-.05,.13-.05,.21s.02,.15,.05,.21l-2.57,1.5-2.9,1.69c-.1-.15-.27-.26-.47-.27v-6.22Zm0,7.39c.2,0,.37-.11,.47-.27l5.39,3.15c-.04,.08-.06,.16-.06,.25s.02,.18,.06,.25l-2.57,1.5-2.8,1.64c-.1-.16-.28-.27-.48-.28v-6.25Zm0,7.45c.2,0,.38-.12,.48-.28l5.26,3.07c-.05,.09-.08,.2-.08,.32s.03,.22,.08,.32l-2.38,1.39-2.8,1.64c-.12-.19-.33-.31-.56-.32v-6.14Zm0,7.53c.24,0,.44-.13,.56-.32l5.35,3.12c-.03,.07-.06,.14-.06,.22s.02,.15,.06,.22l-2.55,1.49-2.96,1.73c-.09-.13-.23-.22-.4-.23v-6.23Zm0,7.25c.17,0,.32-.1,.4-.23l5.44,3.18c-.04,.08-.06,.17-.06,.26s.02,.18,.06,.26l-2.56,1.49-2.84,1.66c-.1-.15-.26-.25-.45-.26v-6.36Zm0,13.89v-6.4c.19,0,.35-.11,.45-.26l5.38,3.14c-.04,.08-.07,.17-.07,.27s.02,.19,.07,.27l-2.5,1.46-2.95,1.73c-.08-.12-.21-.2-.37-.21Zm6.31,3.65c-.18,0-.33,.1-.42,.24l-2.69-1.57-2.81-1.64c.03-.06,.05-.14,.05-.21s-.02-.15-.05-.22l2.68-1.57,2.78-1.62c.1,.15,.27,.25,.46,.26v6.33Zm0-7.48c-.19,0-.36,.11-.46,.26l-2.65-1.55-2.73-1.59c.04-.08,.07-.17,.07-.26s-.02-.18-.07-.26l2.62-1.53,2.77-1.62c.1,.15,.26,.25,.45,.25v6.3Zm0-7.42c-.19,0-.35,.11-.45,.25l-2.66-1.56-2.78-1.62c.04-.07,.06-.15,.06-.24s-.02-.16-.06-.24l2.63-1.54,2.88-1.68c.08,.12,.22,.21,.38,.21v6.4Zm0-7.35c-.16,0-.29,.09-.38,.21l-2.77-1.62-2.58-1.51c.05-.1,.08-.21,.08-.33s-.03-.23-.08-.33l2.47-1.44,2.71-1.58c.12,.18,.32,.3,.55,.31v6.28Zm0-7.63c-.23,0-.43,.13-.55,.31l-2.6-1.52-2.66-1.55c.04-.08,.07-.18,.07-.28s-.03-.2-.07-.28l2.59-1.51,2.79-1.63c.09,.14,.25,.24,.43,.25v6.22Zm0-7.3c-.18,0-.34,.1-.43,.25l-2.64-1.54-2.75-1.61c.04-.08,.07-.17,.07-.27s-.02-.19-.07-.27l2.57-1.5,2.9-1.69c.08,.12,.21,.19,.36,.2v6.44Zm0-7.35c-.15,0-.28,.08-.36,.2l-2.79-1.63-2.63-1.54c.05-.09,.07-.19,.07-.3s-.03-.21-.07-.3l2.54-1.49,2.82-1.65c.09,.14,.24,.23,.42,.24v6.46Zm0-7.51c-.18,0-.33,.1-.42,.24l-2.69-1.57-2.67-1.56c.05-.09,.07-.19,.07-.3s-.03-.21-.07-.3l1.06-.62,4.27-2.5c.1,.15,.26,.25,.45,.26v6.35Zm0-7.47c-.19,0-.35,.11-.45,.26l-5.48-3.2c.03-.06,.05-.13,.05-.21s-.02-.15-.05-.21l2.06-1.2,3.3-1.93c.12,.19,.33,.32,.57,.33v6.17Zm0-7.57c-.24,0-.45,.14-.57,.32l-5.34-3.12c.03-.07,.06-.14,.06-.22s-.02-.16-.06-.22l1.91-1.11,3.49-2.04c.11,.17,.3,.29,.51,.29v6.1Zm0-7.37c-.22,0-.4,.12-.51,.29l-5.41-3.16c.03-.06,.05-.13,.05-.21s-.02-.15-.05-.21l2.27-1.32,3.26-1.9c.09,.13,.23,.22,.4,.23v6.29Zm0-7.3c-.17,0-.31,.1-.4,.23l-5.39-3.15c.05-.09,.07-.19,.07-.29s-.03-.21-.07-.29l2.03-1.19,3.32-1.94c.09,.14,.26,.24,.44,.25v6.38Zm0-7.48c-.18,0-.35,.11-.44,.25l-5.48-3.2c.03-.06,.05-.14,.05-.21s-.02-.15-.05-.21l2.17-1.27,3.34-1.95c.09,.14,.24,.23,.41,.23v6.36Zm0-7.4c-.17,0-.32,.1-.41,.23l-5.47-3.2c.04-.07,.06-.15,.06-.24s-.02-.17-.06-.24l1.73-1.01,3.56-2.08c.12,.2,.34,.33,.59,.34v6.19Zm0-7.64c-.25,0-.47,.14-.59,.34l-5.22-3.05c.04-.08,.07-.18,.07-.28s-.02-.19-.07-.28l2.06-1.2,3.35-1.96c.09,.13,.23,.22,.4,.23v6.2Zm0-7.22c-.17,0-.32,.1-.4,.23l-5.57-3.25c.03-.06,.05-.12,.05-.18s-.02-.13-.05-.18l2.1-1.23,3.52-2.06c.08,.11,.2,.19,.35,.2V7.57Zm.05-6.48c.14,0,.27-.08,.35-.2l5.43,3.17c-.05,.09-.07,.19-.07,.3s.03,.21,.07,.3l-5.37,3.14c-.09-.13-.24-.22-.4-.23V1.09Zm0,7.5c.17,0,.32-.1,.4-.23l.6,.35,4.84,2.83c-.04,.08-.07,.17-.07,.26s.02,.18,.07,.26l-5.24,3.06h0c-.12-.19-.34-.33-.59-.34v-6.2Zm0,7.65c.25,0,.47-.14,.59-.34l5.16,3.02c-.05,.09-.08,.2-.08,.31s.03,.22,.08,.31l-5.34,3.12c-.09-.14-.24-.23-.41-.23v-6.19Zm0,7.23c.17,0,.32-.1,.41-.23l.59,.35,4.7,2.74c-.06,.1-.09,.22-.09,.34s.03,.24,.09,.34l-5.12,2.99-.14,.08c-.09-.15-.26-.24-.44-.25v-6.36Zm0,7.47c.18,0,.35-.11,.44-.25l5.43,3.17c-.04,.07-.06,.16-.06,.24s.02,.17,.06,.24l-5.47,3.2c-.09-.13-.23-.22-.4-.23v-6.38Zm0,7.39c.17,0,.31-.1,.4-.23l.58,.34,4.8,2.81c-.05,.09-.07,.19-.07,.29s.03,.2,.07,.29l-5.21,3.04-.06,.04c-.11-.17-.3-.29-.51-.29v-6.29Zm0,7.57c.22,0,.4-.12,.51-.29l5.35,3.13c-.04,.07-.06,.16-.06,.25s.02,.17,.06,.25l-5.3,3.09c-.12-.19-.33-.32-.57-.32v-6.1Zm0,7.5c.24,0,.45-.14,.57-.33l.45,.26,4.87,2.84c-.04,.07-.06,.15-.06,.24s.02,.16,.06,.24l-3.17,1.85-2.27,1.33c-.1-.15-.26-.25-.45-.26v-6.17Zm0,7.29c.19,0,.35-.11,.45-.26l5.42,3.17c-.04,.07-.06,.16-.06,.24s.02,.17,.06,.25l-1.49,.87-3.96,2.32c-.09-.14-.24-.23-.42-.24v-6.35Zm0,7.4c.17,0,.33-.1,.42-.24l5.47,3.2c-.04,.07-.06,.15-.06,.23s.02,.16,.06,.23l-1.56,.91-3.98,2.32c-.08-.12-.21-.19-.36-.2v-6.46Zm0,7.36c.15,0,.28-.08,.36-.2l5.64,3.3c-.03,.05-.04,.11-.04,.17s.02,.12,.04,.17l-1.57,.92-4,2.34c-.09-.14-.25-.24-.43-.25v-6.44Zm0,7.52c.18,0,.34-.1,.43-.25l5.48,3.2c-.04,.07-.06,.14-.06,.22s.02,.15,.06,.22l-1.58,.92-3.79,2.21c-.12-.18-.32-.3-.55-.31v-6.22Zm0,7.57c.23,0,.43-.13,.55-.31l5.36,3.13c-.04,.07-.06,.14-.06,.22s.02,.16,.06,.22l-1.57,.92-3.96,2.31c-.08-.12-.22-.21-.38-.21v-6.28Zm0,7.24c.16,0,.29-.09,.38-.21l5.55,3.25c-.03,.06-.05,.13-.05,.21s.02,.15,.05,.21l-1.55,.91-3.93,2.3c-.1-.15-.26-.25-.45-.25v-6.4Zm0,7.51c.19,0,.35-.11,.45-.25l5.41,3.16c-.04,.08-.06,.16-.06,.25s.02,.18,.06,.25l-1.47,.86-3.92,2.29c-.1-.15-.27-.25-.46-.26v-6.3Zm5.93,10.8l-1.55,.91-3.96,2.31c-.09-.14-.25-.23-.42-.24v-6.33c.19,0,.36-.11,.46-.26l5.47,3.2c-.03,.06-.05,.13-.05,.21s.02,.14,.05,.21Zm.38-.66c-.15,0-.28,.08-.35,.2l-5.47-3.2c.04-.08,.07-.17,.07-.27s-.02-.19-.07-.27l1.45-.85,3.94-2.3c.09,.14,.25,.24,.44,.25v6.44Zm0-7.53c-.18,0-.34,.1-.44,.25l-5.41-3.16c.04-.08,.06-.17,.06-.26s-.02-.18-.06-.26l1.46-.85,4.02-2.35c.08,.12,.21,.2,.36,.2v6.43Zm0-7.34c-.15,0-.28,.09-.36,.2l-5.55-3.25c.03-.07,.06-.14,.06-.22s-.02-.15-.06-.22l1.58-.92,3.95-2.31c.08,.13,.22,.21,.38,.22v6.49Zm0-7.46c-.16,0-.3,.09-.38,.22l-5.36-3.13c.05-.09,.08-.2,.08-.32s-.03-.22-.08-.32l1.41-.82,3.95-2.31c.08,.12,.22,.21,.38,.22v6.47Zm0-7.43c-.16,0-.3,.09-.38,.22l-5.48-3.2c.04-.08,.06-.16,.06-.25s-.02-.18-.06-.25l1.43-.83,4.14-2.42c.06,.09,.17,.16,.29,.16v6.58Zm0-7.33c-.12,0-.22,.07-.29,.16l-5.64-3.3c.03-.06,.05-.13,.05-.21s-.02-.15-.05-.21l1.6-.93,3.94-2.3c.08,.13,.23,.22,.4,.23v6.56Zm0-7.56c-.17,0-.31,.09-.4,.23l-5.47-3.2c.04-.07,.06-.16,.06-.24s-.02-.17-.06-.24l1.49-.87,3.96-2.31c.09,.14,.24,.23,.42,.24v6.41Zm0-7.46c-.18,0-.33,.1-.42,.24l-5.42-3.17c.04-.08,.07-.17,.07-.26s-.02-.18-.07-.26l5.43-3.18c.09,.13,.23,.22,.4,.23v6.4Zm0-7.42c-.17,0-.32,.1-.4,.23l-5.31-3.1c.05-.1,.08-.21,.08-.33s-.03-.23-.08-.33l5.29-3.09s.05,.07,.08,.1c.09,.09,.21,.14,.34,.15v6.39Zm0-7.46c-.18,0-.33,.1-.42,.24l-4.86-2.84-.49-.28c.05-.09,.08-.19,.08-.3s-.03-.21-.08-.3l.78-.45,4.5-2.63c.11,.17,.29,.28,.5,.28v6.28Zm0-7.52c-.21,0-.39,.12-.5,.28l-5.39-3.15c.04-.07,.06-.15,.06-.23s-.02-.16-.06-.23l5.47-3.2c.09,.14,.24,.23,.42,.24v6.29Zm0-7.34c-.17,0-.33,.1-.42,.24l-4.9-2.86-.53-.31c.04-.08,.06-.16,.06-.26s-.02-.18-.06-.26l.85-.5,4.41-2.58c.12,.2,.34,.33,.59,.34v6.19Zm0-7.63c-.25,0-.46,.14-.59,.34l-5.29-3.09c.04-.07,.06-.15,.06-.24s-.02-.17-.06-.24l5.34-3.12c.11,.18,.31,.3,.53,.31v6.05Zm0-7.37c-.22,0-.42,.13-.53,.31l-4.73-2.77-.43-.25c.06-.1,.09-.22,.09-.35s-.03-.24-.09-.35l.68-.4,4.57-2.67c.1,.15,.26,.25,.45,.26v6.21Zm0-7.33c-.19,0-.35,.11-.45,.26l-5.43-3.18c.04-.07,.06-.15,.06-.24s-.02-.16-.06-.24l5.37-3.14c.11,.17,.29,.28,.51,.29v6.24Zm.05-6.24c.21,0,.4-.12,.51-.29l2.64,1.54,2.74,1.6c-.04,.07-.06,.15-.06,.24s.02,.17,.06,.24l-5.43,3.17c-.1-.15-.26-.25-.45-.26V4.99Zm0,7.37c.19,0,.35-.11,.45-.26l2.7,1.57,2.77,1.62c-.03,.07-.06,.14-.06,.22s.02,.15,.06,.22l-5.38,3.14c-.11-.18-.31-.3-.53-.31v-6.21Zm0,7.54c.22,0,.42-.13,.53-.31l2.61,1.52,2.61,1.52c-.05,.09-.08,.2-.08,.31s.03,.22,.08,.31l-5.16,3.02c-.12-.2-.34-.33-.59-.34v-6.05Zm0,7.49c.25,0,.46-.14,.59-.34l2.56,1.49,2.7,1.58c-.04,.08-.07,.17-.07,.26s.02,.18,.07,.26l-5.42,3.17c-.09-.14-.24-.23-.42-.24v-6.19Zm0,7.24c.18,0,.33-.1,.42-.24l2.72,1.59,2.77,1.62c-.03,.07-.05,.14-.05,.22s.02,.15,.05,.22l-5.42,3.17c-.11-.16-.29-.28-.5-.28v-6.29Zm0,7.53c.21,0,.39-.12,.5-.28l2.65,1.55,2.63,1.54c-.05,.09-.08,.19-.08,.3s.03,.21,.08,.3l-5.35,3.13c-.09-.14-.25-.23-.42-.24v-6.28Zm0,7.35c.13,0,.25-.06,.34-.15,.03-.03,.06-.06,.08-.1l2.72,1.59,2.75,1.61c-.04,.07-.06,.15-.06,.23s.02,.16,.06,.23l-5.49,3.21c-.09-.13-.23-.22-.4-.23v-6.39Zm0,7.41c.17,0,.32-.1,.4-.23l5.45,3.18c-.04,.08-.06,.16-.06,.25s.02,.18,.06,.25l-5.44,3.18c-.09-.14-.24-.23-.42-.24v-6.4Zm0,7.45c.18,0,.33-.1,.42-.24l5.43,3.17c-.04,.08-.06,.17-.06,.26s.02,.18,.06,.26l-1.47,.86-3.98,2.33c-.09-.13-.23-.22-.4-.23v-6.41Zm0,7.41c.17,0,.31-.09,.4-.23l5.36,3.13c-.05,.09-.08,.2-.08,.31s.03,.22,.08,.31l-1.33,.78-4.14,2.42c-.06-.09-.17-.16-.29-.16v-6.56Zm0,7.31c.12,0,.22-.07,.29-.16l5.6,3.27c-.04,.07-.06,.15-.06,.23s.02,.16,.06,.23l-1.56,.91-3.95,2.31c-.08-.12-.22-.21-.38-.22v-6.58Zm0,7.54c.16,0,.3-.09,.38-.22l5.52,3.23c-.04,.07-.06,.14-.06,.23s.02,.16,.06,.23l-1.47,.86-4.05,2.36c-.08-.13-.22-.21-.38-.22v-6.47Zm0,7.44c.16,0,.3-.09,.38-.22l5.33,3.12c-.05,.1-.08,.21-.08,.33s.03,.23,.08,.33l-1.29,.75-4.07,2.38c-.08-.12-.21-.2-.36-.2v-6.49Zm0,7.4c.15,0,.28-.09,.36-.2l5.52,3.23c-.04,.07-.06,.15-.06,.24s.02,.17,.06,.24l-1.55,.9-3.9,2.28c-.09-.14-.25-.24-.44-.25v-6.43Zm0,13.96v-6.44c.18,0,.34-.11,.44-.25l5.46,3.19c-.04,.07-.06,.14-.06,.23s.02,.16,.06,.23l-1.52,.89-4.03,2.35c-.08-.12-.21-.19-.35-.2Zm6.31,3.66c-.17,0-.31,.1-.4,.23l-5.53-3.23c.03-.06,.05-.13,.05-.21s-.02-.14-.05-.21l1.55-.91,3.99-2.33c.08,.13,.23,.21,.39,.22v6.44Zm0-7.42c-.16,0-.3,.09-.39,.22l-5.46-3.19c.04-.08,.06-.16,.06-.25s-.02-.18-.06-.25l1.52-.89,3.92-2.29c.09,.13,.24,.22,.41,.23v6.43Zm0-7.46c-.17,0-.32,.1-.41,.23l-5.52-3.23c.03-.06,.05-.13,.05-.21s-.02-.15-.05-.21l1.5-.88,3.86-2.26c.12,.19,.33,.32,.57,.33v6.22Zm0-7.62c-.24,0-.45,.14-.57,.33l-5.33-3.12c.04-.07,.06-.14,.06-.22s-.02-.16-.06-.22l1.47-.86,4.04-2.36c.08,.13,.23,.21,.39,.22v6.24Zm0-7.22c-.16,0-.3,.09-.39,.22l-5.52-3.23c.03-.07,.06-.14,.06-.22s-.02-.16-.06-.22l1.58-.92,3.94-2.3c.08,.13,.23,.22,.4,.22v6.44Zm0-7.44c-.17,0-.31,.09-.4,.23l-5.6-3.27c.03-.05,.04-.11,.04-.17s-.02-.12-.04-.17l1.57-.92,3.9-2.28c.11,.18,.31,.29,.53,.3v6.28Zm0-7.59c-.22,0-.42,.13-.53,.3l-5.36-3.13c.04-.07,.06-.15,.06-.23s-.02-.16-.06-.23l1.51-.88,3.94-2.3c.09,.15,.26,.24,.44,.25v6.23Zm0-7.33c-.18,0-.35,.11-.44,.25l-5.43-3.17c.04-.07,.06-.16,.06-.25s-.02-.17-.06-.24l.38-.22,5.06-2.95c.09,.14,.25,.24,.43,.25v6.34Zm0-7.42c-.18,0-.34,.1-.43,.25l-4.4-2.57-1.05-.62c.04-.07,.06-.15,.06-.24s-.02-.17-.06-.24l5.49-3.21c.09,.13,.23,.22,.4,.23v6.39Zm0-7.39c-.17,0-.31,.1-.4,.23l-2.75-1.6-2.72-1.59c.04-.07,.06-.16,.06-.25s-.02-.17-.06-.25l5.35-3.13c.11,.17,.3,.28,.51,.29v6.3Zm0-7.57c-.21,0-.4,.12-.51,.29l-2.63-1.54-2.65-1.55c.05-.09,.07-.19,.07-.29s-.03-.2-.07-.29l5.42-3.17c.08,.12,.22,.2,.37,.21v6.33Zm0-7.27c-.16,0-.29,.09-.37,.21l-2.77-1.62-2.72-1.59c.04-.07,.06-.16,.06-.24s-.02-.17-.06-.24l5.42-3.17c.1,.15,.26,.25,.45,.25v6.4Zm0-7.52c-.19,0-.35,.11-.45,.25l-2.7-1.58-2.56-1.49c.06-.1,.09-.22,.09-.34s-.03-.24-.09-.34l5.17-3.02c.11,.18,.31,.3,.53,.31v6.21Zm0-7.54c-.22,0-.42,.13-.53,.31l-2.61-1.53-2.61-1.52c.05-.09,.08-.2,.08-.31s-.03-.22-.08-.31l5.38-3.14c.08,.12,.22,.2,.37,.21v6.3Zm0-7.25c-.16,0-.29,.09-.37,.21l-2.77-1.62-2.69-1.57c.04-.08,.07-.17,.07-.26s-.02-.18-.07-.26l5.43-3.17c.09,.13,.24,.22,.41,.23v6.45Zm0-7.47c-.17,0-.32,.1-.41,.23l-2.74-1.6-2.63-1.54c.05-.09,.07-.19,.07-.3s-.03-.21-.07-.3l5.35-3.13c.09,.14,.25,.23,.43,.24V7.57Zm.05-6.39c.18,0,.34-.1,.43-.24l5.54,3.24c-.03,.06-.05,.12-.05,.18s.02,.13,.05,.18l-5.57,3.25c-.09-.13-.24-.22-.41-.23V1.18Zm0,7.41c.17,0,.32-.1,.41-.23l.6,.35,4.87,2.85c-.04,.07-.06,.15-.06,.24s.02,.17,.06,.24l-5.28,3.08-.22,.13c-.08-.12-.22-.2-.37-.21v-6.45Zm0,7.39c.16,0,.29-.09,.37-.21l5.36,3.13c-.05,.1-.08,.21-.08,.32s.03,.23,.08,.32l-5.2,3.04c-.11-.18-.31-.3-.53-.31v-6.3Zm0,7.62c.22,0,.42-.13,.53-.31l.47,.27,4.92,2.88c-.03,.06-.05,.13-.05,.21s.02,.15,.05,.21l-5.35,3.12-.13,.08c-.1-.15-.26-.25-.45-.25v-6.21Zm0,7.33c.19,0,.35-.11,.45-.25l5.43,3.17c-.04,.07-.06,.15-.06,.24s.02,.17,.06,.24l-5.51,3.22c-.08-.12-.22-.2-.37-.21v-6.4Zm0,7.35c.16,0,.29-.09,.37-.21l.61,.36,4.77,2.79c-.05,.09-.08,.2-.08,.31s.03,.22,.08,.31l-5.18,3.03-.07,.04c-.11-.17-.3-.28-.51-.29v-6.33Zm0,7.6c.21,0,.4-.12,.51-.29l5.31,3.1c-.04,.08-.07,.18-.07,.28s.03,.19,.07,.28l-5.42,3.17c-.08-.13-.23-.22-.4-.23v-6.3Zm0,7.3c.17,0,.31-.1,.4-.23l.62,.36,4.74,2.77c-.05,.09-.08,.2-.08,.31s.03,.22,.08,.31l-3.04,1.78-2.29,1.34c-.09-.14-.25-.24-.43-.25v-6.39Zm0,7.48c.18,0,.34-.1,.43-.25l5.49,3.21c-.03,.07-.05,.14-.05,.21s.02,.15,.05,.22l-1.54,.9-3.94,2.3c-.09-.15-.26-.24-.44-.25v-6.34Zm0,7.44c.19,0,.35-.11,.44-.25l5.56,3.25c-.03,.05-.04,.11-.04,.17s.02,.12,.04,.17l-1.66,.97-3.8,2.22c-.11-.18-.31-.29-.53-.3v-6.23Zm0,7.54c.22,0,.42-.13,.53-.3l5.33,3.12c-.04,.07-.06,.16-.06,.25s.02,.17,.06,.25l-1.43,.84-4.03,2.36c-.09-.13-.23-.22-.4-.23v-6.28Zm0,7.28c.17,0,.31-.09,.4-.22l5.48,3.2c-.04,.07-.06,.15-.06,.24s.02,.17,.06,.24l-1.55,.9-3.95,2.3c-.08-.13-.23-.21-.39-.22v-6.44Zm0,7.43c.16,0,.3-.09,.39-.22l5.52,3.23c-.04,.07-.06,.14-.06,.22s.02,.15,.06,.22l-1.57,.92-3.76,2.2c-.12-.19-.33-.32-.57-.33v-6.24Zm0,7.64c.24,0,.45-.14,.57-.33l5.36,3.13c-.03,.06-.05,.13-.05,.21s.02,.15,.05,.21l-1.54,.9-3.97,2.32c-.09-.13-.24-.22-.41-.23v-6.22Zm0,7.25c.17,0,.32-.1,.41-.23l5.4,3.16c-.04,.08-.07,.18-.07,.28s.03,.2,.07,.28l-1.43,.84-3.99,2.33c-.08-.13-.23-.21-.39-.22v-6.43Zm5.82,10.91l-1.44,.84-3.98,2.32c-.09-.13-.23-.22-.4-.23v-6.44c.16,0,.31-.09,.39-.22l5.43,3.17c-.04,.08-.07,.17-.07,.27s.02,.19,.07,.27Zm.49-.85c-.2,0-.37,.11-.47,.27l-5.43-3.17c.04-.07,.06-.14,.06-.23s-.02-.16-.06-.23l1.52-.89,3.91-2.28c.1,.16,.28,.26,.48,.27v6.26Zm0-7.45c-.2,0-.37,.11-.48,.27l-5.4-3.16c.04-.07,.06-.15,.06-.24s-.02-.17-.06-.24l1.5-.88,4.02-2.35c.08,.12,.21,.2,.36,.21v6.38Zm0-7.3c-.15,0-.28,.09-.36,.21l-5.35-3.13c.05-.1,.08-.21,.08-.33s-.03-.23-.08-.33l1.38-.81,3.95-2.31c.08,.12,.22,.21,.38,.22v6.49Zm0-7.46c-.16,0-.3,.09-.38,.22l-5.52-3.23c.04-.07,.06-.14,.06-.23s-.02-.16-.06-.23l1.57-.92,3.92-2.29c.09,.13,.24,.22,.41,.23v6.44Zm0-7.47c-.17,0-.32,.1-.41,.23l-5.48-3.2c.04-.07,.06-.15,.06-.23s-.02-.16-.06-.23l1.46-.85,4-2.34c.09,.14,.25,.23,.43,.24v6.38Zm0-7.45c-.18,0-.33,.1-.43,.24l-5.33-3.11c.05-.09,.08-.2,.08-.31s-.03-.22-.08-.31l1.42-.83,4.04-2.36c.06,.09,.17,.16,.29,.16v6.52Zm0-7.28c-.12,0-.23,.07-.29,.17l-5.55-3.25c.04-.08,.06-.16,.06-.26s-.02-.18-.06-.26l1.46-.86,4.01-2.34c.08,.12,.21,.2,.37,.21v6.59Zm0-7.52c-.15,0-.29,.09-.37,.21l-5.49-3.21c.04-.08,.06-.16,.06-.25s-.02-.18-.06-.25l5.33-3.11c.11,.17,.3,.29,.52,.3v6.32Zm0-7.62c-.22,0-.41,.13-.52,.3l-5.37-3.14c.04-.07,.06-.15,.06-.23s-.02-.16-.06-.23l5.42-3.17c.1,.16,.27,.26,.47,.27v6.2Zm0-7.37c-.2,0-.37,.11-.47,.27l-4.82-2.81-.49-.29c.05-.09,.08-.19,.08-.3s-.03-.21-.08-.3l.78-.46,4.47-2.61c.11,.18,.31,.29,.53,.3v6.19Zm0-7.5c-.22,0-.41,.13-.53,.3l-5.39-3.15c.03-.07,.05-.14,.05-.22s-.02-.15-.05-.22l5.51-3.22c.09,.13,.24,.22,.41,.23v6.27Zm0-7.3c-.17,0-.32,.1-.41,.23l-4.91-2.87-.52-.3c.04-.08,.06-.17,.06-.26s-.02-.18-.06-.26l.84-.49,4.63-2.71c.08,.12,.21,.2,.36,.21v6.46Zm0-7.38c-.15,0-.28,.09-.36,.21l-5.39-3.15c.05-.09,.08-.2,.08-.31s-.03-.22-.08-.31l5.2-3.04c.12,.18,.32,.31,.55,.32v6.29Zm0-7.65c-.23,0-.43,.13-.55,.31l-4.72-2.76-.65-.38c.03-.07,.05-.14,.05-.22s-.02-.15-.05-.22l.9-.53,4.6-2.69c.09,.14,.24,.23,.41,.23v6.23Zm0-7.27c-.17,0-.32,.1-.41,.24l-5.47-3.2c.04-.07,.06-.15,.06-.24s-.02-.17-.06-.24l5.57-3.25c.07,.1,.18,.17,.32,.18v6.51Zm.05-6.51c.13,0,.25-.08,.32-.18l2.83,1.65,2.47,1.44c-.06,.12-.1,.25-.1,.39s.04,.28,.1,.39l-5.2,3.04c-.09-.14-.24-.23-.41-.24V4.77Zm0,7.55c.17,0,.32-.1,.41-.24l2.73,1.6,2.76,1.61c-.04,.07-.06,.14-.06,.22s.02,.16,.06,.22l-5.35,3.13c-.12-.18-.32-.31-.55-.32v-6.23Zm0,7.6c.23,0,.43-.13,.55-.32l2.59,1.52,2.64,1.54c-.05,.09-.07,.19-.07,.29s.03,.21,.07,.29l-5.42,3.17c-.08-.12-.21-.2-.36-.21v-6.29Zm0,7.22c.15,0,.28-.09,.36-.21l2.78,1.62,2.73,1.6c-.04,.07-.06,.15-.06,.24s.02,.17,.06,.24l-5.47,3.19c-.09-.13-.24-.22-.41-.23v-6.46Zm0,7.49c.17,0,.32-.1,.41-.23l2.73,1.6,2.73,1.59c-.04,.07-.06,.15-.06,.24s.02,.17,.06,.24l-5.34,3.12c-.11-.18-.31-.29-.53-.3v-6.27Zm0,7.57c.22,0,.41-.13,.53-.3l2.62,1.53,2.79,1.63c-.03,.06-.05,.13-.05,.21s.02,.15,.05,.21l-5.46,3.19c-.1-.16-.27-.26-.47-.27v-6.19Zm0,7.37c.2,0,.37-.11,.47-.27l2.67,1.56,2.81,1.64c-.03,.06-.05,.12-.05,.2s.02,.14,.05,.2l-5.43,3.17c-.11-.17-.3-.29-.52-.3v-6.2Zm0,7.5c.22,0,.41-.13,.52-.3l5.28,3.09c-.04,.08-.07,.18-.07,.28s.03,.2,.07,.28l-5.44,3.18c-.08-.12-.21-.2-.37-.21v-6.32Zm0,7.25c.15,0,.29-.09,.37-.21l5.53,3.23c-.04,.07-.06,.15-.06,.23s.02,.16,.06,.23l-1.51,.88-4.09,2.39c-.06-.09-.17-.16-.29-.17v-6.59Zm0,7.35c.12,0,.23-.07,.29-.16l5.58,3.26c-.04,.07-.06,.16-.06,.25s.02,.17,.06,.25l-1.44,.84-4,2.34c-.09-.14-.25-.23-.43-.24v-6.52Zm0,7.59c.18,0,.33-.1,.43-.24l5.38,3.14c-.04,.08-.07,.18-.07,.28s.03,.2,.07,.28l-1.47,.86-3.92,2.29c-.09-.13-.24-.22-.41-.23v-6.38Zm0,7.41c.17,0,.32-.1,.41-.23l5.42,3.17c-.04,.08-.07,.17-.07,.27s.02,.19,.07,.27l-1.4,.82-4.05,2.37c-.08-.12-.22-.21-.38-.22v-6.44Zm0,7.4c.16,0,.3-.09,.38-.22l5.49,3.21c-.04,.07-.06,.16-.06,.24s.02,.17,.06,.25l-1.44,.84-4.07,2.38c-.08-.12-.21-.2-.36-.21v-6.49Zm0,7.41c.15,0,.28-.09,.36-.21l5.48,3.2c-.04,.08-.06,.17-.06,.26s.02,.18,.06,.26l-1.51,.88-3.86,2.25c-.1-.16-.28-.26-.48-.27v-6.38Zm0,13.83v-6.26c.2,0,.37-.11,.48-.27l5.34,3.12c-.04,.08-.07,.17-.07,.27s.02,.19,.07,.27l-1.44,.84-3.92,2.29c-.1-.15-.27-.26-.47-.27Zm6.31,3.88c-.14,0-.26,.08-.33,.19l-5.49-3.21c.04-.08,.07-.17,.07-.27s-.02-.19-.07-.27l1.44-.84,3.91-2.29c.1,.16,.27,.26,.47,.27v6.43Zm0-7.6c-.2,0-.37,.11-.47,.27l-5.34-3.12c.04-.08,.07-.18,.07-.28s-.03-.2-.07-.28l1.48-.86,3.89-2.27c.09,.15,.26,.25,.44,.25v6.3Zm0-7.4c-.18,0-.35,.11-.44,.25l-5.48-3.2c.03-.06,.05-.13,.05-.21s-.02-.15-.05-.21l1.5-.87,4.01-2.34c.09,.14,.24,.23,.42,.24v6.35Zm0-7.41c-.17,0-.33,.1-.42,.24l-5.49-3.21c.03-.07,.06-.14,.06-.22s-.02-.16-.06-.22l1.48-.86,3.97-2.32c.1,.15,.27,.25,.46,.26v6.33Zm0-7.48c-.19,0-.36,.11-.46,.26l-5.42-3.17c.04-.07,.06-.15,.06-.24s-.02-.17-.06-.24l1.55-.9,3.86-2.25c.1,.16,.28,.27,.48,.27v6.26Zm0-7.46c-.2,0-.38,.12-.48,.27l-5.38-3.15c.04-.07,.06-.16,.06-.25s-.02-.17-.06-.25l1.43-.84,4.01-2.34c.09,.14,.24,.23,.42,.24v6.31Zm0-7.37c-.18,0-.33,.1-.42,.24l-5.58-3.26c.03-.05,.04-.11,.04-.17s-.02-.12-.04-.17l1.62-.94,3.99-2.33c.08,.13,.23,.22,.39,.22v6.41Zm0-7.4c-.16,0-.31,.09-.39,.22l-5.53-3.23c.03-.07,.05-.14,.05-.22s-.02-.15-.05-.21l.43-.25,5.01-2.93c.1,.16,.28,.27,.48,.27v6.34Zm0-7.54c-.2,0-.38,.12-.48,.27l-4.35-2.54-.93-.54c.05-.09,.08-.2,.08-.31s-.03-.22-.08-.31l5.43-3.17c.07,.11,.2,.18,.33,.19v6.41Zm0-7.27c-.14,0-.26,.08-.33,.19l-2.81-1.64-2.67-1.56c.04-.08,.07-.18,.07-.28s-.03-.19-.07-.28l5.46-3.19c.08,.12,.21,.19,.36,.2v6.55Zm0-7.46c-.15,0-.28,.09-.36,.2l-2.79-1.63-2.62-1.53c.05-.09,.08-.2,.08-.31s-.03-.22-.08-.31l5.34-3.12c.09,.14,.24,.23,.42,.24v6.46Zm0-7.5c-.17,0-.33,.1-.42,.24l-2.73-1.59-2.73-1.6c.04-.07,.06-.15,.06-.24s-.02-.17-.06-.24l5.47-3.19c.09,.13,.24,.23,.41,.23v6.39Zm0-7.43c-.17,0-.32,.1-.41,.23l-2.73-1.6-2.78-1.62c.03-.06,.05-.14,.05-.21s-.02-.15-.05-.21l5.43-3.17c.11,.17,.29,.28,.5,.29v6.3Zm0-7.54c-.21,0-.39,.12-.5,.29l-2.64-1.54-2.59-1.51c.05-.1,.08-.21,.08-.32s-.03-.23-.08-.32l5.35-3.13c.08,.13,.22,.21,.38,.22v6.33Zm0-7.3c-.16,0-.3,.09-.38,.22l-2.76-1.61-2.73-1.6c.04-.07,.06-.15,.06-.24s-.02-.17-.06-.24l5.2-3.04c.14,.23,.39,.38,.67,.39v6.12Zm0-7.77c-.28,0-.53,.16-.67,.39l-2.47-1.44-2.83-1.65c.03-.06,.05-.12,.05-.18s-.02-.13-.05-.18l5.48-3.2c.1,.16,.28,.27,.49,.28V7.26Zm.05-6c.2,0,.38-.12,.49-.28l5.21,3.04c-.06,.1-.09,.22-.09,.35s.03,.24,.09,.35l-5.02,2.93c-.14-.23-.39-.38-.67-.39V1.25Zm0,7.65c.28,0,.53-.16,.67-.39l.33,.19,4.64,2.71c-.06,.11-.09,.24-.09,.38s.03,.26,.09,.38l-5.05,2.95-.21,.12c-.08-.13-.22-.21-.38-.22v-6.12Zm0,7.1c.16,0,.3-.09,.38-.22l5.52,3.23c-.04,.07-.06,.14-.06,.22s.02,.16,.06,.22l-5.41,3.16c-.11-.17-.29-.28-.5-.29v-6.33Zm0,7.57c.21,0,.39-.12,.5-.29l.5,.29,4.79,2.8c-.05,.09-.07,.19-.07,.29s.03,.21,.07,.29l-5.21,3.04-.17,.1c-.09-.13-.24-.22-.41-.23v-6.3Zm0,7.33c.17,0,.32-.1,.41-.23l5.33,3.11c-.05,.1-.08,.21-.08,.32s.03,.23,.08,.32l-5.32,3.11c-.09-.14-.24-.23-.42-.24v-6.39Zm0,7.44c.17,0,.33-.1,.42-.24l.57,.33,4.93,2.88c-.03,.06-.05,.14-.05,.21s.02,.15,.05,.21l-5.34,3.12-.22,.13c-.08-.12-.21-.19-.36-.2v-6.46Zm0,7.37c.15,0,.28-.09,.36-.2l5.39,3.15c-.05,.09-.08,.2-.08,.32s.03,.22,.08,.32l-5.41,3.16c-.07-.11-.2-.18-.33-.19v-6.55Zm0,7.41c.14,0,.26-.08,.33-.19l.68,.4,4.96,2.9c-.03,.05-.04,.12-.04,.18s.02,.13,.04,.18l-3.26,1.9-2.24,1.31c-.1-.16-.28-.27-.48-.27v-6.41Zm0,7.6c.2,0,.38-.12,.48-.27l5.28,3.08c-.05,.09-.08,.2-.08,.31s.03,.22,.08,.31l-1.38,.8-3.99,2.33c-.08-.13-.23-.22-.39-.22v-6.34Zm0,7.33c.16,0,.31-.09,.39-.22l5.29,3.09c-.06,.11-.09,.23-.09,.35s.03,.25,.09,.35l-1.35,.79-3.91,2.29c-.09-.14-.24-.23-.42-.24v-6.41Zm0,7.46c.18,0,.33-.1,.42-.24l5.53,3.23c-.03,.06-.05,.13-.05,.2s.02,.14,.05,.2l-1.52,.89-3.95,2.31c-.1-.16-.28-.26-.48-.27v-6.31Zm0,7.5c.2,0,.38-.12,.48-.27l5.33,3.12c-.04,.08-.07,.18-.07,.28s.03,.19,.07,.28l-1.48,.86-3.87,2.26c-.1-.15-.27-.25-.46-.26v-6.26Zm0,7.41c.19,0,.36-.11,.46-.26l5.39,3.15c-.04,.08-.06,.16-.06,.25s.02,.18,.06,.25l-1.52,.89-3.91,2.29c-.09-.14-.24-.23-.42-.24v-6.33Zm0,7.39c.18,0,.33-.1,.42-.24l5.47,3.2c-.04,.07-.06,.15-.06,.23s.02,.16,.06,.23l-1.51,.88-3.94,2.3c-.09-.15-.26-.24-.44-.25v-6.35Zm0,7.46c.19,0,.35-.11,.44-.25l5.38,3.15c-.04,.08-.07,.17-.07,.27s.02,.19,.07,.27l-1.44,.84-3.91,2.29c-.1-.15-.27-.26-.47-.27v-6.3Zm5.87,10.84l-1.49,.87-4.05,2.37c-.07-.11-.19-.18-.33-.19v-6.43c.2,0,.37-.11,.47-.27l5.4,3.16c-.04,.07-.06,.16-.06,.25s.02,.17,.06,.24Zm.44-.77c-.18,0-.33,.1-.42,.24l-5.4-3.15c.04-.08,.07-.17,.07-.27s-.02-.19-.07-.27l1.44-.84,3.92-2.29c.1,.15,.27,.25,.46,.26v6.33Zm0-7.48c-.19,0-.36,.11-.46,.26l-5.38-3.15c.04-.08,.06-.17,.06-.26s-.02-.18-.06-.26l1.46-.86,3.98-2.33c.09,.13,.23,.22,.4,.23v6.36Zm0-7.36c-.17,0-.31,.09-.4,.23l-5.47-3.2c.04-.07,.06-.16,.06-.25s-.02-.17-.06-.24l1.54-.9,3.9-2.28c.09,.14,.25,.24,.44,.25v6.39Zm0-7.48c-.18,0-.34,.1-.44,.25l-5.39-3.15c.04-.08,.07-.17,.07-.27s-.02-.19-.07-.27l1.49-.87,3.86-2.25c.1,.16,.27,.26,.47,.27v6.3Zm0-7.48c-.2,0-.37,.11-.47,.27l-5.33-3.12c.04-.08,.07-.18,.07-.28s-.03-.2-.07-.28l1.38-.8,4.09-2.39c.08,.11,.2,.19,.34,.19v6.41Zm0-7.28c-.14,0-.27,.08-.34,.19l-5.52-3.23c.04-.07,.06-.16,.06-.25s-.02-.17-.06-.25l1.53-.9,3.73-2.18c.13,.2,.35,.34,.61,.35v6.25Zm0-7.74c-.25,0-.48,.14-.61,.35l-5.29-3.09c.04-.07,.06-.15,.06-.23s-.02-.16-.06-.23l1.51-.88,3.85-2.25c.11,.17,.31,.29,.53,.3v6.04Zm0-7.34c-.22,0-.41,.13-.53,.3l-5.28-3.08c.04-.08,.07-.18,.07-.28s-.03-.2-.07-.28l5.5-3.21c.07,.1,.18,.17,.31,.18v6.38Zm0-7.18c-.13,0-.24,.07-.31,.18l-5.64-3.3c.03-.06,.05-.12,.05-.2s-.02-.14-.05-.2l5.41-3.16c.12,.18,.31,.3,.54,.31v6.36Zm0-7.71c-.23,0-.43,.13-.54,.31l-4.74-2.77-.65-.38c.03-.06,.05-.13,.05-.21s-.02-.15-.05-.21l.94-.55,4.63-2.7c.08,.12,.21,.2,.37,.21v6.3Zm0-7.23c-.15,0-.29,.09-.37,.21l-5.5-3.22c.04-.07,.06-.15,.06-.24s-.02-.17-.06-.24l5.32-3.11c.12,.18,.32,.3,.55,.31v6.29Zm0-7.64c-.23,0-.43,.13-.55,.31l-4.77-2.79-.56-.33c.04-.07,.06-.15,.06-.24s-.02-.17-.06-.24l.88-.52,4.5-2.63c.11,.17,.29,.28,.5,.29v6.14Zm0-7.38c-.21,0-.39,.12-.5,.29l-5.29-3.09c.05-.09,.07-.19,.07-.29s-.03-.2-.07-.29l5.4-3.16c.08,.13,.22,.21,.38,.22v6.33Zm0-7.3c-.16,0-.3,.09-.38,.22l-4.89-2.85-.63-.37c.04-.07,.06-.14,.06-.22s-.02-.16-.06-.22l.89-.52,4.38-2.56c.14,.21,.37,.36,.64,.37v6.17Zm0-7.73c-.27,0-.5,.15-.64,.37l-4.97-2.9c.06-.12,.1-.25,.1-.39s-.04-.28-.1-.39l5.02-2.93c.12,.2,.34,.33,.59,.34v5.93Zm.05-5.93c.25,0,.46-.14,.59-.34l2.55,1.49,2.7,1.58c-.04,.08-.06,.16-.06,.26s.02,.18,.06,.26l-5.2,3.04c-.13-.21-.37-.36-.64-.37V5.09Zm0,7.49c.27,0,.51-.15,.64-.37l2.5,1.46,2.53,1.48c-.06,.11-.09,.23-.09,.36s.03,.25,.09,.36l-5.29,3.09c-.08-.13-.22-.21-.38-.22v-6.17Zm0,7.13c.16,0,.3-.09,.38-.22l2.76,1.61,2.59,1.52c-.05,.1-.08,.21-.08,.32s.03,.23,.08,.32l-5.24,3.06c-.11-.17-.29-.28-.5-.29v-6.33Zm0,7.57c.21,0,.39-.12,.5-.29l2.64,1.54,2.89,1.69s-.04,.09-.04,.15,.01,.1,.04,.15l-5.49,3.21c-.12-.18-.32-.31-.55-.31v-6.14Zm0,7.49c.23,0,.43-.13,.55-.31l2.6,1.52,2.78,1.62c-.03,.06-.05,.14-.05,.21s.02,.15,.05,.21l-5.55,3.25c-.08-.12-.21-.2-.37-.21v-6.29Zm0,7.23c.15,0,.29-.09,.37-.21l2.78,1.62,2.8,1.64c-.03,.06-.05,.13-.05,.2s.02,.14,.05,.2l-5.4,3.16c-.12-.18-.32-.3-.54-.31v-6.3Zm0,7.64c.23,0,.43-.13,.54-.31l2.6,1.52,2.8,1.63c-.03,.06-.05,.13-.05,.2s.02,.14,.05,.2l-5.63,3.29c-.07-.1-.18-.17-.31-.18v-6.36Zm0,7.16c.13,0,.24-.07,.31-.18l5.58,3.26c-.04,.07-.06,.15-.06,.23s.02,.16,.06,.23l-5.36,3.13c-.11-.17-.3-.29-.53-.3v-6.38Zm0,7.69c.22,0,.42-.13,.53-.3l5.34,3.12c-.04,.07-.06,.16-.06,.25s.02,.17,.06,.25l-1.46,.85-3.8,2.22c-.13-.2-.35-.34-.61-.35v-6.04Zm0,7.53c.26,0,.48-.14,.61-.35l5.25,3.06c-.04,.08-.06,.16-.06,.26s.02,.18,.06,.26l-1.39,.81-4.12,2.41c-.07-.11-.2-.19-.34-.19v-6.25Zm0,7.13c.14,0,.27-.08,.34-.19l5.62,3.29c-.03,.06-.05,.12-.05,.19s.02,.13,.05,.19l-1.6,.94-3.89,2.27c-.1-.16-.28-.26-.47-.27v-6.41Zm0,7.59c.2,0,.37-.11,.47-.27l5.47,3.2c-.03,.06-.05,.13-.05,.2s.02,.14,.05,.2l-1.49,.87-4.02,2.35c-.09-.14-.25-.24-.44-.25v-6.3Zm0,7.39c.18,0,.34-.11,.44-.25l5.25,3.07c-.06,.1-.09,.22-.09,.35s.03,.25,.09,.35l-1.22,.71-4.06,2.37c-.09-.13-.23-.22-.4-.23v-6.39Zm0,7.39c.17,0,.31-.09,.4-.23l5.53,3.23c-.03,.06-.05,.13-.05,.21s.02,.15,.05,.21l-1.57,.92-3.9,2.28c-.1-.15-.27-.25-.46-.26v-6.36Zm0,13.84v-6.33c.19,0,.36-.11,.46-.26l5.34,3.12c-.04,.08-.07,.18-.07,.28s.03,.2,.07,.28l-1.4,.82-3.99,2.33c-.09-.14-.24-.23-.42-.24Zm6.31,3.78c-.15,0-.29,.09-.37,.21l-5.5-3.21c.04-.07,.06-.16,.06-.24s-.02-.17-.06-.25l1.46-.85,3.93-2.29c.1,.16,.28,.27,.48,.28v6.37Zm0-7.57c-.2,0-.38,.12-.48,.28l-5.34-3.12c.04-.08,.07-.17,.07-.27s-.02-.19-.07-.27l1.46-.86,4-2.34c.08,.12,.21,.19,.36,.2v6.38Zm0-7.29c-.15,0-.28,.09-.36,.2l-5.54-3.23c.04-.07,.06-.15,.06-.23s-.02-.16-.06-.23l1.43-.84,3.86-2.25c.13,.2,.35,.34,.6,.34v6.24Zm0-7.72c-.25,0-.48,.14-.6,.34l-5.25-3.07c.04-.08,.06-.16,.06-.25s-.02-.18-.06-.25l1.39-.81,4.12-2.41c.08,.11,.2,.19,.34,.2v6.25Zm0-7.13c-.14,0-.27,.08-.34,.19l-5.47-3.2c.04-.08,.07-.18,.07-.28s-.03-.2-.07-.28l1.45-.85,4.04-2.36c.07,.11,.19,.18,.32,.18v6.58Zm0-7.41c-.13,0-.25,.08-.32,.18l-5.62-3.29c.03-.06,.05-.13,.05-.2s-.02-.14-.05-.2l1.49-.87,4.02-2.35c.09,.14,.25,.24,.44,.25v6.47Zm0-7.57c-.18,0-.34,.11-.44,.25l-5.24-3.06c.06-.11,.09-.23,.09-.35s-.03-.25-.09-.35l1.27-.74,3.99-2.33c.09,.14,.25,.23,.42,.24v6.36Zm0-7.42c-.18,0-.33,.1-.42,.24l-5.34-3.12c.05-.09,.08-.2,.08-.31s-.03-.22-.08-.31l.25-.15,5.11-2.99c.09,.13,.23,.22,.4,.23v6.4Zm0-7.41c-.17,0-.31,.1-.4,.23l-4.41-2.58-1.17-.69c.03-.05,.04-.12,.04-.18s-.02-.13-.04-.18l5.63-3.29c.08,.11,.2,.19,.35,.2v6.49Zm0-7.38c-.14,0-.27,.08-.35,.2l-2.8-1.63-2.6-1.52c.05-.09,.08-.2,.08-.32s-.03-.22-.08-.32l5.4-3.15c.08,.11,.2,.19,.35,.2v6.55Zm0-7.43c-.14,0-.27,.08-.35,.2l-2.8-1.64-2.78-1.62c.03-.06,.05-.14,.05-.21s-.02-.15-.05-.21l5.55-3.25c.08,.12,.21,.2,.37,.21v6.53Zm0-7.46c-.15,0-.29,.09-.37,.21l-2.78-1.62-2.59-1.52c.05-.1,.08-.21,.08-.32s-.03-.23-.08-.32l5.48-3.2c.06,.08,.15,.14,.25,.14v6.64Zm0-7.31c-.11,0-.2,.06-.25,.14l-2.89-1.69-2.64-1.54c.05-.09,.07-.19,.07-.29s-.03-.21-.07-.29l5.24-3.06c.12,.18,.32,.31,.55,.31v6.42Zm0-7.78c-.23,0-.43,.13-.55,.31l-2.59-1.52-2.76-1.61c.04-.07,.06-.14,.06-.22s-.02-.16-.06-.22l5.29-3.09c.13,.2,.35,.34,.61,.35v6.01Zm0-7.5c-.26,0-.48,.15-.61,.35l-2.53-1.48-2.5-1.46c.06-.11,.1-.24,.1-.38s-.04-.26-.1-.38l5.2-3.04c.09,.15,.26,.24,.44,.25v6.13Zm0-7.24c-.19,0-.35,.11-.44,.25l-2.7-1.58-2.55-1.49c.06-.1,.09-.22,.09-.35s-.03-.24-.09-.35l5.29-3.09c.09,.13,.24,.22,.41,.23V7.52Zm.05-6.37c.17,0,.32-.1,.41-.23l5.55,3.24c-.03,.06-.05,.12-.05,.19s.02,.14,.05,.19l-5.51,3.22c-.09-.15-.26-.24-.44-.25V1.16Zm0,7.48c.19,0,.35-.11,.44-.25l.52,.3,4.96,2.9c-.03,.06-.05,.14-.05,.22s.02,.15,.05,.22l-5.29,3.09h-.02c-.13-.19-.35-.33-.61-.34v-6.13Zm0,7.63c.26,0,.48-.15,.61-.35l5.18,3.03c-.05,.09-.07,.18-.07,.29s.03,.2,.07,.29l-5.24,3.06c-.12-.18-.32-.31-.55-.31v-6.01Zm0,7.36c.23,0,.43-.13,.55-.31l.41,.24,4.88,2.85c-.04,.08-.07,.17-.07,.26s.02,.18,.07,.26l-5.22,3.05-.36,.21c-.06-.08-.15-.14-.25-.14v-6.42Zm0,7.09c.1,0,.2-.06,.25-.14l5.68,3.32c-.03,.06-.05,.13-.05,.21s.02,.15,.05,.21l-5.57,3.25c-.08-.12-.21-.2-.37-.21v-6.64Zm0,7.56c.15,0,.29-.09,.37-.21l.58,.34,4.91,2.87c-.04,.08-.06,.16-.06,.25s.02,.18,.06,.25l-5.24,3.06-.27,.16c-.08-.11-.2-.19-.34-.2v-6.53Zm0,7.41c.14,0,.27-.08,.34-.2l5.27,3.08c-.06,.12-.1,.25-.1,.39s.04,.28,.1,.39l-5.27,3.08c-.08-.11-.2-.19-.35-.2v-6.55Zm0,7.44c.14,0,.27-.08,.35-.2l.63,.37,4.92,2.88c-.04,.07-.06,.14-.06,.23s.02,.16,.06,.23l-3.19,1.87-2.31,1.35c-.09-.13-.23-.22-.4-.23v-6.49Zm0,7.49c.17,0,.31-.1,.4-.23l5.51,3.22c-.03,.07-.06,.14-.06,.22s.02,.16,.06,.22l-1.58,.92-3.9,2.28c-.09-.14-.25-.23-.42-.24v-6.4Zm0,7.46c.18,0,.33-.1,.42-.24l5.46,3.19c-.04,.07-.06,.15-.06,.24s.02,.16,.06,.24l-1.6,.94-3.84,2.25c-.09-.14-.25-.24-.44-.25v-6.36Zm0,7.45c.18,0,.34-.11,.44-.25l5.35,3.13c-.05,.09-.07,.19-.07,.29s.03,.2,.07,.29l-1.42,.83-4.05,2.37c-.07-.11-.19-.18-.32-.18v-6.47Zm0,7.3c.13,0,.25-.08,.32-.18l5.55,3.24c-.04,.07-.06,.15-.06,.24s.02,.17,.06,.24l-1.59,.93-3.94,2.3c-.08-.11-.2-.19-.34-.19v-6.58Zm0,7.46c.14,0,.27-.08,.34-.2l5.53,3.23c-.04,.07-.06,.16-.06,.24s.02,.17,.06,.24l-1.59,.93-3.68,2.15c-.13-.2-.35-.34-.6-.34v-6.25Zm0,7.74c.25,0,.48-.14,.6-.34l5.16,3.02c-.05,.09-.08,.19-.08,.3s.03,.21,.08,.3l-1.44,.84-3.97,2.32c-.08-.12-.21-.19-.36-.2v-6.24Zm0,7.15c.15,0,.28-.08,.36-.2l5.34,3.12c-.06,.1-.09,.22-.09,.35s.03,.24,.09,.35l-1.37,.8-3.84,2.25c-.1-.16-.28-.27-.48-.28v-6.38Zm5.66,11.07l-1.33,.78-3.96,2.31c-.08-.12-.21-.2-.37-.21v-6.37c.2,0,.38-.12,.48-.28l5.17,3.02c-.06,.11-.09,.24-.09,.37s.03,.26,.09,.37Zm.66-1.14c-.27,0-.5,.15-.63,.36l-5.17-3.02c.04-.08,.07-.18,.07-.28s-.03-.2-.07-.28l1.48-.87,3.73-2.18c.12,.2,.34,.33,.59,.34v5.93Zm0-7.39c-.25,0-.47,.14-.59,.34l-5.34-3.12c.03-.06,.05-.13,.05-.21s-.02-.14-.05-.21l1.61-.94,3.8-2.22c.11,.17,.3,.29,.52,.3v6.06Zm0-7.35c-.22,0-.41,.12-.52,.3l-5.16-3.02c.06-.11,.09-.23,.09-.35s-.03-.25-.09-.35l1.4-.82,3.86-2.26c.09,.14,.24,.23,.42,.24v6.26Zm0-7.31c-.18,0-.33,.1-.42,.24l-5.53-3.23c.03-.06,.05-.13,.05-.2s-.02-.14-.05-.2l1.67-.97,3.87-2.26c.09,.14,.24,.23,.41,.23v6.39Zm0-7.43c-.17,0-.32,.1-.41,.24l-5.55-3.24c.03-.06,.05-.12,.05-.19s-.02-.13-.05-.19l1.59-.93,3.87-2.26c.11,.17,.29,.28,.5,.28v6.29Zm0-7.53c-.21,0-.39,.12-.5,.29l-5.35-3.13c.04-.08,.06-.16,.06-.26s-.02-.18-.06-.26l1.57-.92,3.87-2.26c.09,.13,.24,.22,.41,.23v6.3Zm0-7.33c-.17,0-.32,.1-.41,.23l-5.46-3.19c.04-.07,.06-.16,.06-.25s-.02-.17-.06-.25l1.54-.9,3.94-2.3c.08,.13,.22,.21,.38,.22v6.44Zm0-7.41c-.16,0-.3,.09-.38,.22l-5.51-3.22c.04-.07,.06-.15,.06-.23s-.02-.16-.06-.23l5.5-3.22c.08,.13,.22,.21,.39,.22v6.46Zm0-7.44c-.16,0-.3,.09-.39,.22l-5.56-3.25c.03-.06,.05-.13,.05-.2s-.02-.14-.05-.2l5.27-3.08c.14,.22,.39,.38,.67,.38v6.13Zm0-7.76c-.28,0-.53,.16-.67,.38l-4.66-2.72-.62-.36c.03-.06,.05-.13,.05-.2s-.02-.14-.05-.2l.9-.52,4.62-2.7c.09,.14,.25,.24,.43,.25v6.08Zm0-7.16c-.18,0-.34,.1-.43,.25l-5.49-3.21c.03-.06,.05-.14,.05-.21s-.02-.15-.05-.21l5.57-3.25c.08,.12,.21,.2,.36,.2v6.44Zm0-7.35c-.15,0-.28,.09-.36,.2l-5-2.92-.67-.39s.04-.09,.04-.15-.01-.1-.04-.15l.99-.58,4.6-2.69c.1,.15,.26,.25,.45,.26v6.42Zm0-7.54c-.19,0-.35,.11-.45,.26l-5.29-3.09c.05-.1,.08-.21,.08-.32s-.03-.23-.08-.32l5.24-3.06c.11,.16,.29,.27,.49,.28v6.26Zm0-7.49c-.21,0-.39,.12-.49,.28l-4.82-2.81-.37-.21c.06-.11,.09-.23,.09-.36s-.03-.25-.09-.36l.61-.35,4.7-2.75c.08,.12,.22,.2,.37,.21v6.35Zm0-7.29c-.16,0-.29,.09-.37,.21l-5.47-3.2c.04-.08,.06-.17,.06-.26s-.02-.18-.06-.26l5.51-3.22c.07,.11,.19,.18,.33,.19v6.54Zm.05-6.54c.14,0,.26-.08,.33-.19l2.81,1.64,2.75,1.61c-.04,.07-.06,.15-.06,.23s.02,.16,.06,.23l-5.52,3.23c-.08-.12-.22-.2-.37-.21V4.79Zm0,7.48c.16,0,.29-.09,.37-.21l2.77,1.62,2.61,1.53c-.05,.09-.08,.2-.08,.31s.03,.22,.08,.31l-5.26,3.07c-.11-.16-.29-.27-.49-.28v-6.35Zm0,7.58c.21,0,.39-.12,.49-.28l2.65,1.55,2.72,1.59c-.04,.07-.06,.16-.06,.25s.02,.17,.06,.25l-5.41,3.16c-.1-.15-.26-.25-.45-.26v-6.26Zm0,7.38c.19,0,.35-.11,.45-.26l2.69,1.57,2.57,1.5c-.05,.1-.08,.21-.08,.33s.03,.23,.08,.33l-5.36,3.13c-.08-.12-.21-.2-.36-.2v-6.42Zm0,7.33c.15,0,.28-.09,.36-.2l2.79,1.63,2.72,1.59c-.04,.07-.06,.16-.06,.25s.02,.17,.06,.25l-5.44,3.18c-.09-.14-.25-.24-.43-.25v-6.44Zm0,7.52c.18,0,.34-.1,.43-.25l2.71,1.59,2.75,1.61c-.04,.07-.06,.15-.06,.23s.02,.16,.06,.23l-5.23,3.05c-.14-.22-.39-.38-.67-.38v-6.08Zm0,7.71c.28,0,.53-.16,.67-.38l2.47,1.44,2.67,1.56c-.04,.08-.07,.18-.07,.28s.03,.19,.07,.28l-5.43,3.17c-.08-.13-.22-.21-.39-.22v-6.13Zm0,7.1c.16,0,.3-.09,.39-.22l5.49,3.21c-.04,.07-.06,.15-.06,.24s.02,.17,.06,.24l-5.49,3.21c-.08-.13-.22-.21-.38-.22v-6.46Zm0,7.43c.16,0,.3-.09,.38-.22l5.5,3.21c-.04,.07-.06,.15-.06,.24s.02,.17,.06,.24l-1.5,.88-3.98,2.32c-.09-.13-.24-.22-.4-.23v-6.44Zm0,7.46c.17,0,.32-.1,.4-.23l5.41,3.16c-.04,.08-.07,.18-.07,.28s.03,.2,.07,.28l-1.38,.81-3.93,2.3c-.11-.17-.29-.28-.5-.29v-6.3Zm0,7.54c.21,0,.39-.12,.5-.28l5.42,3.17c-.03,.06-.05,.14-.05,.21s.02,.15,.05,.21l-1.59,.93-3.92,2.29c-.09-.14-.24-.23-.41-.24v-6.29Zm0,7.33c.17,0,.32-.1,.41-.23l5.4,3.15c-.04,.08-.07,.18-.07,.28s.03,.2,.07,.28l-1.38,.81-4.01,2.34c-.09-.14-.24-.23-.42-.24v-6.39Zm0,7.44c.17,0,.33-.1,.42-.24l5.4,3.16c-.04,.08-.07,.17-.07,.27s.02,.19,.07,.27l-1.39,.81-3.91,2.28c-.11-.17-.3-.29-.52-.3v-6.26Zm0,7.55c.22,0,.41-.12,.52-.3l5.2,3.04c-.05,.1-.08,.21-.08,.33s.03,.23,.08,.33l-1.39,.81-3.74,2.19c-.12-.2-.34-.33-.59-.34v-6.06Zm0,13.45v-5.93c.25,0,.47-.14,.59-.34l5.26,3.07c-.04,.08-.06,.16-.06,.26s.02,.18,.06,.26l-1.47,.86-3.75,2.19c-.13-.21-.36-.35-.63-.36Zm6.31,4.14c-.11,0-.21,.07-.27,.15l-5.39-3.15c.06-.11,.09-.24,.09-.37s-.03-.26-.09-.37l1.28-.75,3.94-2.3c.09,.14,.25,.24,.44,.25v6.53Zm0-7.63c-.18,0-.34,.11-.44,.25l-5.26-3.07c.06-.1,.09-.22,.09-.35s-.03-.24-.09-.35l1.36-.79,3.77-2.2c.12,.19,.33,.31,.56,.32v6.19Zm0-7.58c-.24,0-.44,.13-.56,.32l-5.2-3.04c.05-.09,.08-.19,.08-.3s-.03-.21-.08-.3l1.34-.78,3.96-2.32c.1,.15,.27,.26,.46,.27v6.16Zm0-7.32c-.2,0-.37,.11-.46,.27l-5.41-3.16c.04-.07,.06-.16,.06-.24s-.02-.17-.06-.24l1.44-.84,3.95-2.31c.1,.16,.28,.26,.48,.27v6.26Zm0-7.45c-.2,0-.37,.12-.48,.27l-5.4-3.15c.04-.07,.06-.15,.06-.24s-.02-.17-.06-.24l1.54-.9,3.96-2.32c.08,.12,.21,.2,.37,.21v6.37Zm0-7.31c-.15,0-.29,.09-.37,.21l-5.42-3.17c.05-.09,.07-.19,.07-.29s-.03-.21-.07-.29l1.36-.79,3.95-2.31c.1,.16,.28,.26,.48,.27v6.37Zm0-7.56c-.2,0-.37,.11-.48,.27l-5.41-3.16c.04-.07,.06-.15,.06-.24s-.02-.17-.06-.24l1.5-.88,3.97-2.32c.09,.13,.24,.22,.41,.23v6.33Zm0-7.35c-.17,0-.32,.1-.41,.23l-5.5-3.21c.04-.07,.06-.14,.06-.22s-.02-.16-.06-.22l.42-.24,5.08-2.97c.09,.14,.24,.23,.41,.23v6.4Zm0-7.44c-.17,0-.32,.1-.41,.23l-4.42-2.58-1.07-.63c.04-.07,.06-.14,.06-.23s-.02-.16-.06-.23l5.43-3.17c.1,.16,.27,.26,.47,.27v6.33Zm0-7.5c-.2,0-.37,.11-.47,.27l-2.67-1.56-2.47-1.44c.06-.12,.1-.25,.1-.39s-.04-.28-.1-.39l5.22-3.05c.08,.13,.23,.21,.39,.22v6.35Zm0-7.34c-.16,0-.31,.09-.39,.22l-2.75-1.61-2.71-1.59c.04-.08,.06-.16,.06-.25s-.02-.18-.06-.25l5.44-3.18c.09,.14,.24,.23,.42,.24v6.41Zm0-7.47c-.18,0-.33,.1-.42,.24l-2.72-1.59-2.79-1.63c.03-.06,.05-.13,.05-.21s-.02-.15-.05-.21l5.36-3.13c.12,.19,.33,.32,.57,.32v6.21Zm0-7.61c-.24,0-.45,.14-.57,.32l-2.58-1.5-2.69-1.57c.04-.08,.07-.17,.07-.26s-.02-.18-.07-.26l5.41-3.16c.09,.14,.25,.23,.42,.24v6.2Zm0-7.27c-.18,0-.33,.1-.42,.24l-2.72-1.59-2.65-1.55c.05-.09,.07-.18,.07-.29s-.03-.2-.07-.29l5.26-3.07c.11,.18,.31,.29,.53,.3v6.24Zm0-7.56c-.22,0-.42,.13-.53,.3l-2.61-1.53-2.77-1.62c.03-.07,.05-.14,.05-.22s-.02-.15-.05-.22l5.52-3.23c.09,.13,.23,.22,.4,.23v6.28Zm0-7.28c-.17,0-.31,.1-.4,.23l-2.75-1.6-2.81-1.64c.03-.06,.05-.12,.05-.19s-.02-.14-.05-.19l5.46-3.19c.11,.16,.29,.27,.49,.28V7.58Zm5.83,108.01c-.05,.09-.07,.19-.07,.3s.03,.21,.07,.3l-1.37,.8-4.14,2.42c-.06-.09-.16-.14-.27-.15v-6.53c.18,0,.34-.11,.44-.25l5.34,3.12Zm-.06-7.47c-.05,.1-.08,.21-.08,.33s.03,.23,.08,.33l-1.31,.77-3.97,2.32c-.09-.14-.25-.24-.44-.25v-6.19c.24,0,.44-.13,.56-.32l5.16,3.01Zm.09-7.38c-.04,.08-.07,.18-.07,.28s.03,.19,.07,.28l-1.4,.82-3.84,2.25c-.12-.19-.33-.31-.56-.32v-6.16c.2,0,.37-.11,.46-.27l5.35,3.12Zm-5.34-10.55l5.37,3.14c-.04,.08-.06,.17-.06,.26s.02,.18,.06,.26l-1.48,.87-3.9,2.28c-.1-.15-.27-.26-.46-.27v-6.26c.2,0,.37-.11,.48-.27Zm0-14.87l5.39,3.15c-.04,.07-.06,.16-.06,.25s.02,.17,.06,.25l-1.4,.82-4.09,2.39c-.08-.12-.21-.2-.37-.21v-6.37c.2,0,.37-.11,.48-.27Zm5.4-11.71c-.04,.07-.06,.15-.06,.24s.02,.17,.06,.24l-1.47,.86-4,2.34c-.09-.13-.24-.22-.41-.23v-6.4c.17,0,.32-.1,.41-.23l5.46,3.19Zm-4.84-10.26l4.77,2.78c-.04,.08-.07,.18-.07,.28s.03,.2,.07,.28l-3.08,1.8-2.31,1.35c-.09-.14-.24-.23-.41-.23v-6.33c.2,0,.37-.11,.47-.27l.57,.33Zm4.78-4.64c-.04,.08-.07,.18-.07,.28s.03,.19,.07,.28l-5.34,3.12c-.1-.16-.27-.26-.47-.27v-6.35c.16,0,.31-.09,.39-.22l5.42,3.17Zm-4.81-10.24l4.84,2.83c-.04,.08-.06,.16-.06,.26s.02,.18,.06,.26l-5.29,3.09-.17,.1c-.08-.13-.23-.21-.39-.22v-6.41c.18,0,.33-.1,.42-.24l.58,.34Zm4.83-4.61c-.04,.08-.07,.17-.07,.27s.02,.19,.07,.27l-5.41,3.16c-.09-.14-.24-.23-.42-.24v-6.21c.24,0,.45-.14,.57-.32l5.27,3.08Zm-5.41-10.59l.6,.35,4.83,2.82c-.04,.08-.06,.16-.06,.25s.02,.18,.06,.25l-5.28,3.09c-.12-.19-.33-.32-.57-.32v-6.2c.18,0,.33-.1,.42-.24Zm.6-14.52l4.85,2.84c-.04,.07-.06,.15-.06,.24s.02,.17,.06,.24l-5.3,3.1-.05,.03c-.11-.18-.31-.29-.53-.3v-6.28c.17,0,.31-.1,.4-.23l.62,.36Zm4.85-4.11l-5.47,3.2c-.09-.13-.23-.22-.4-.23V1.26c.21,0,.39-.12,.49-.28l5.38,3.14c-.04,.07-.06,.16-.06,.25s.02,.17,.06,.25Z"/></svg>