<?xml version="1.0" encoding="UTF-8"?><svg id="Graphic_Element" xmlns="http://www.w3.org/2000/svg" xmlns:xlink="http://www.w3.org/1999/xlink" viewBox="0 0 1242 1268"><defs><style>.cls-1{opacity:.5;}.cls-2{fill:#518be0;}.cls-3{clip-path:url(#clippath);}.cls-4{fill:none;}</style><clipPath id="clippath"><rect class="cls-4" x="21" y="34" width="1200" height="1200" transform="translate(1242 1268) rotate(180)"/></clipPath></defs><g class="cls-3"><g class="cls-1"><rect class="cls-2" x="-320" y="1182.73" width="1842" height="4.4"/><rect class="cls-2" x="-320" y="1086.02" width="1842" height="4.4"/><rect class="cls-2" x="-320" y="989.3" width="1842" height="4.4"/><rect class="cls-2" x="-320" y="892.59" width="1842" height="4.4"/><rect class="cls-2" x="-320" y="795.87" width="1842" height="4.4"/><rect class="cls-2" x="-320" y="699.16" width="1842" height="4.4"/><rect class="cls-2" x="-320" y="602.44" width="1842" height="4.4"/><rect class="cls-2" x="-320" y="505.73" width="1842" height="4.4"/><rect class="cls-2" x="-320" y="409.01" width="1842" height="4.4"/><rect class="cls-2" x="-320" y="312.29" width="1842" height="4.4"/><rect class="cls-2" x="-320" y="215.58" width="1842" height="4.4"/><rect class="cls-2" x="-320" y="118.86" width="1842" height="4.4"/><rect class="cls-2" x="-320" y="22.15" width="1842" height="4.4"/><rect class="cls-2" x="66.86" y="-268" width="4.4" height="1842"/><rect class="cls-2" x="163.58" y="-268" width="4.4" height="1842"/><rect class="cls-2" x="260.29" y="-268" width="4.4" height="1842"/><rect class="cls-2" x="357.01" y="-268" width="4.4" height="1842"/><rect class="cls-2" x="453.73" y="-268" width="4.4" height="1842"/><rect class="cls-2" x="550.44" y="-268" width="4.4" height="1842"/><rect class="cls-2" x="647.16" y="-268" width="4.4" height="1842"/><rect class="cls-2" x="743.87" y="-268" width="4.4" height="1842"/><rect class="cls-2" x="840.59" y="-268" width="4.4" height="1842"/><rect class="cls-2" x="937.3" y="-268" width="4.4" height="1842"/><rect class="cls-2" x="1034.02" y="-268" width="4.4" height="1842"/><rect class="cls-2" x="1130.73" y="-268" width="4.4" height="1842"/><rect class="cls-2" x="1227.45" y="-268" width="4.4" height="1842"/></g></g></svg>